<svg xmlns="http://www.w3.org/2000/svg" viewBox="0 0 500 500"><g id="freepik--background-complete--inject-32"><rect x="416.78" y="398.49" width="33.12" height="0.25" style="fill:#ebebeb"></rect><rect x="322.53" y="401.21" width="8.69" height="0.25" style="fill:#ebebeb"></rect><rect x="396.59" y="389.21" width="19.19" height="0.25" style="fill:#ebebeb"></rect><rect x="52.46" y="390.89" width="43.19" height="0.25" style="fill:#ebebeb"></rect><rect x="104.56" y="390.89" width="6.33" height="0.25" style="fill:#ebebeb"></rect><rect x="131.47" y="395.11" width="93.68" height="0.25" style="fill:#ebebeb"></rect><path d="M237,337.8H43.92a5.71,5.71,0,0,1-5.71-5.71V60.66A5.71,5.71,0,0,1,43.92,55H237a5.71,5.71,0,0,1,5.71,5.71V332.09A5.71,5.71,0,0,1,237,337.8ZM43.92,55.2a5.47,5.47,0,0,0-5.46,5.46V332.09a5.47,5.47,0,0,0,5.46,5.46H237a5.47,5.47,0,0,0,5.46-5.46V60.66A5.47,5.47,0,0,0,237,55.2Z" style="fill:#ebebeb"></path><path d="M453.31,337.8H260.21a5.72,5.72,0,0,1-5.71-5.71V60.66A5.72,5.72,0,0,1,260.21,55h193.1A5.71,5.71,0,0,1,459,60.66V332.09A5.71,5.71,0,0,1,453.31,337.8ZM260.21,55.2a5.47,5.47,0,0,0-5.46,5.46V332.09a5.47,5.47,0,0,0,5.46,5.46h193.1a5.47,5.47,0,0,0,5.46-5.46V60.66a5.47,5.47,0,0,0-5.46-5.46Z" style="fill:#ebebeb"></path><rect y="382.4" width="500" height="0.25" style="fill:#ebebeb"></rect><polygon points="389.35 254.1 389.35 245.81 398.12 245.81 398.12 222.86 400.99 222.86 400.99 245.81 409.75 245.81 409.75 254.1 413.9 254.1 413.9 382.62 385.21 382.62 385.21 254.1 389.35 254.1" style="fill:#e0e0e0"></polygon><path d="M309.43,265.07V382.62h40.24V274l-7.27-8.94Zm30.07,84.3h6.85v6.85H339.5Zm0-13.7h6.85v6.85H339.5Zm0-27.41h6.85v6.85H339.5Zm0-13.7h6.85v6.85H339.5Zm0-13.7h6.85v6.85H339.5Zm-13.71,54.81h6.86v6.85h-6.86Zm0-13.7h6.86v6.85h-6.86Zm0-13.71h6.86v6.85h-6.86Zm-13.7,41.11h6.85v6.85h-6.85Zm0-27.4h6.85v6.85h-6.85Zm0-13.71h6.85v6.85h-6.85Zm0-27.4h6.85v6.85h-6.85Z" style="fill:#ebebeb"></path><path d="M128.37,382.62l12.35-.15-.89-44.27-.18-10.26v-.62l-.16-9.14,0-.6-.14-8.68v-.57l-.15-8.28v-.54l-.13-7.9v-.51l-.14-7.53v-.5l-.12-7.21v-.47l-.11-6.26a4.38,4.38,0,0,1-1,.58l.07,4.55-4.25-3.88a11.28,11.28,0,0,1-1.61-.19l5.16,4.72-6.4,0,0-5.05a3.82,3.82,0,0,1-1-.46l-.06,6v.46l-.07,7.22v.48l-.08,7.56v.5l-.07,7.91V300l-.07,8.28v.57l-.09,8.7v.59l-.09,9.15v.62L129,338.2Zm1.95-54.37h7.38l-7.43,8Zm.12-8.62,7.31,7.67h-7.36Zm-.09-10.89,7,0L130.31,316Zm.08-7.93,7,7-7,0Zm.06-9.25,6.7,0-6.74,6.59Zm.06-7.33,6.64,6.36-6.69,0Zm6.47-8.29-6.44,6,0-6Zm.95,7.38-6.54,0,6.45-6Zm.1,7.32-6.63-6.33,6.54,0Zm.13,9.12-6.83,0,6.75-6.6Zm.11,7.9-7-6.93,6.86,0Zm.13,10h-7.18l7.08-7.28Zm.08,8.6-7.31-7.64h7.21Zm.06,10.54H131l7.44-8.07Z" style="fill:#ebebeb"></path><path d="M129.71,269.72a4.6,4.6,0,0,0,1,.46v-.75l1.2,1.1a10,10,0,0,0,1.61.2l-3-2.7-.35.32h-.5Zm8-1.33,0,1.66a3.7,3.7,0,0,0,1-.58l0-1.08Z" style="fill:#ebebeb"></path><path d="M128.27,267.53a1.73,1.73,0,0,0,.52,1.47l.34.32a4.23,4.23,0,0,0,.58.4,4.6,4.6,0,0,0,1,.46,6.21,6.21,0,0,0,1.2.35,10,10,0,0,0,1.61.2h.73a8.68,8.68,0,0,0,3.44-.7,3.7,3.7,0,0,0,1-.58l.08-.06.33-.31a1.66,1.66,0,0,0,.47-1.43l-.74-4.11,1.94,0L134,260.15l-7,3.21,2,0Z" style="fill:#ebebeb"></path><path d="M143.34,292.1v90.52h39.17V292.1Zm28.56,64.37h5.43v4.67H171.9Zm0-34h5.43v4.67H171.9Zm0-17h5.43v4.68H171.9ZM160.21,348h5.43v4.68h-5.43Zm0-17h5.43v4.68h-5.43Zm0-17h5.43v4.67h-5.43Zm0-17h5.43v4.67h-5.43Zm-11.69,59.54H154v4.67h-5.43Zm0-8.51H154v4.68h-5.43Zm0-25.51H154v4.67h-5.43Zm0-8.51H154v4.67h-5.43Z" style="fill:#ebebeb"></path><polygon points="266.03 382.62 227.03 382.62 227.03 313.93 266.03 299.17 266.03 382.62" style="fill:#f5f5f5"></polygon><rect x="243.65" y="313.42" width="5.75" height="5.75" style="fill:#fff"></rect><rect x="256.03" y="313.42" width="5.75" height="5.75" style="fill:#fff"></rect><rect x="231.28" y="323.89" width="5.75" height="5.75" style="fill:#fff"></rect><rect x="243.65" y="334.35" width="5.75" height="5.75" style="fill:#fff"></rect><rect x="256.03" y="334.35" width="5.75" height="5.75" style="fill:#fff"></rect><rect x="231.28" y="344.82" width="5.75" height="5.75" style="fill:#fff"></rect><rect x="243.65" y="357.63" width="5.75" height="5.75" transform="translate(493.06 721.01) rotate(180)" style="fill:#fff"></rect><rect x="231.28" y="357.63" width="5.75" height="5.75" transform="translate(468.3 721.01) rotate(180)" style="fill:#fff"></rect><rect x="256.03" y="368.1" width="5.75" height="5.75" transform="translate(517.81 741.94) rotate(180)" style="fill:#fff"></rect><polygon points="88.9 271.23 88.9 252.17 93.46 252.17 93.46 230.9 97.3 230.9 97.3 221.29 105.01 209.9 112.73 221.29 112.73 230.9 116.56 230.9 116.56 252.17 121.13 252.17 121.13 271.23 125.75 271.23 125.75 382.62 84.28 382.62 84.28 271.23 88.9 271.23" style="fill:#ebebeb"></polygon><rect x="102.14" y="277.17" width="5.75" height="5.75" transform="translate(210.02 560.09) rotate(180)" style="fill:#fefefe"></rect><rect x="89.76" y="277.17" width="5.75" height="5.75" transform="translate(185.27 560.09) rotate(180)" style="fill:#fefefe"></rect><rect x="114.51" y="298.1" width="5.75" height="5.75" transform="translate(234.78 601.95) rotate(180)" style="fill:#fefefe"></rect><rect x="89.76" y="298.1" width="5.75" height="5.75" transform="translate(185.27 601.95) rotate(180)" style="fill:#fefefe"></rect><rect x="102.14" y="308.57" width="5.75" height="5.75" transform="translate(210.02 622.89) rotate(180)" style="fill:#fefefe"></rect><rect x="114.51" y="319.04" width="5.75" height="5.75" transform="translate(234.78 643.82) rotate(180)" style="fill:#fefefe"></rect><rect x="102.14" y="319.04" width="5.75" height="5.75" transform="translate(210.02 643.82) rotate(180)" style="fill:#fefefe"></rect><rect x="89.76" y="329.5" width="5.75" height="5.75" transform="translate(185.27 664.76) rotate(180)" style="fill:#fefefe"></rect><rect x="114.51" y="339.97" width="5.75" height="5.75" transform="translate(234.78 685.69) rotate(180)" style="fill:#fefefe"></rect><rect x="102.14" y="350.44" width="5.75" height="5.75" transform="translate(210.02 706.62) rotate(180)" style="fill:#fefefe"></rect><rect x="89.76" y="350.44" width="5.75" height="5.75" transform="translate(185.27 706.62) rotate(180)" style="fill:#fefefe"></rect><path d="M49.93,280.07V382.62H84.14V263.7Zm12.34,70.6H55.88v-6.38h6.39Zm0-34.84H55.88v-6.38h6.39Zm0-23.23H55.88v-6.38h6.39ZM76,373.9H69.62v-6.38H76Zm0-34.84H69.62v-6.38H76Zm0-11.62H69.62v-6.38H76Zm0-23.22H69.62v-6.39H76Z" style="fill:#e6e6e6"></path><path d="M405.76,307l.17,75.59h42.86L449,307h-8.35l0-9.61H414.12V307Zm8.33,7.24h-5.6v-5h5.6Zm-5.47,18.18v-4.81H414v4.81Zm5.33,4.07v4.69h-5.22v-4.69Zm-5.41-13v-4.93H414v4.93Zm16.27-21.58V307H419.1v-5.14Zm0,7.33v5h-5.6v-5Zm-5.49,23.23v-4.81h5.35v4.81Zm5.32,4.07v4.69h-5.23v-4.69Zm-5.39-13v-4.93h5.48v4.93Zm16.29-21.58V307h-5.71v-5.14Zm0,7.33v5H430v-5Zm-5.53,23.23v-4.81h5.35v4.81Zm.09,4.07h5.23v4.69h-5.23Zm-.15-13v-4.93h5.47v4.93Zm16.33-9.2h-5.6v-5h5.61Zm-5.55,18.18v-4.81h5.35v4.81Zm.09,4.07h5.22v4.69h-5.22Zm-.13-13v-4.93h5.48l0,4.93Zm5.53,35.91h-5.69v-5.1h5.7Zm-5.61,17.88v-4.84h5.42l0,4.84Zm-.11-8.52v-5h5.55l0,5Zm-.12-17.68v-5.22h5.83l0,5.22Zm-4.84,8.32h-5.69v-5.1h5.69Zm-5.71,9.36v-5h5.55v5Zm-.14-17.68v-5.22h5.83v5.22Zm-10.53,12.72h5.55v5h-5.55Zm0-9.5h5.69v5.1h-5.69Zm-.17-8.44h5.83v5.22h-5.82Zm-10.37,26.58h5.42v4.84h-5.41Zm-.14-8.64h5.55v5h-5.55Zm0-9.5h5.7v5.1h-5.69Zm-.17-8.44h5.83v5.22h-5.82Z" style="fill:#f0f0f0"></path><polygon points="435.47 372.42 419.29 372.42 419.32 373.63 419.77 373.63 419.78 382.62 421.4 382.62 421.39 373.63 433.39 373.63 433.38 382.62 435 382.62 435.01 373.63 435.5 373.63 435.47 372.42" style="fill:#f5f5f5"></polygon><polygon points="427.46 382.62 421.47 382.62 421.47 373.63 427.47 373.63 427.46 382.62" style="fill:#e6e6e6"></polygon><polygon points="433.31 382.62 427.32 382.62 427.32 373.63 433.32 373.63 433.31 382.62" style="fill:#ebebeb"></polygon><path d="M350.78,307l.18,75.59h42.85l.24-75.59H385.7l0-9.61H359.15V307Zm8.33,7.24h-5.6v-5h5.61Zm-5.46,18.18v-4.81H359v4.81Zm5.32,4.07v4.69h-5.23v-4.69Zm-5.4-13v-4.93H359v4.93Zm16.26-21.58V307h-5.71v-5.14Zm0,7.33v5h-5.61v-5Zm-5.5,23.23v-4.81h5.35v4.81Zm5.32,4.07v4.69h-5.22v-4.69Zm-5.39-13v-4.93h5.48v4.93Zm16.3-21.58V307h-5.71v-5.14Zm0,7.33v5H375v-5Zm-5.53,23.23v-4.81h5.35v4.81Zm.09,4.07h5.23v4.69h-5.22Zm-.14-13v-4.93h5.48v4.93Zm16.33-9.2h-5.61v-5h5.61Zm-5.56,18.18,0-4.81h5.35l0,4.81Zm.09,4.07h5.23v4.69h-5.23Zm-.13-13v-4.93h5.48v4.93Zm5.54,35.91h-5.69v-5.1h5.69Zm-5.62,17.88v-4.84h5.42v4.84Zm-.11-8.52v-5h5.55v5Zm-.12-17.68v-5.22h5.83v5.22Zm-4.84,8.32h-5.69v-5.1h5.7Zm-5.71,9.36v-5h5.55v5Zm-.14-17.68v-5.22h5.83v5.22Zm-10.53,12.72h5.55v5h-5.55Zm0-9.5h5.69v5.1h-5.69Zm-.16-8.44h5.83v5.22h-5.82ZM353.7,372.42h5.42v4.84h-5.42Zm-.13-8.64h5.55v5h-5.55Zm0-9.5h5.7v5.1h-5.68Zm-.16-8.44h5.83v5.22h-5.82Z" style="fill:#f0f0f0"></path><polygon points="380.49 372.42 364.32 372.42 364.35 373.63 364.8 373.63 364.8 382.62 366.42 382.62 366.42 373.63 378.42 373.63 378.41 382.62 380.02 382.62 380.04 373.63 380.52 373.63 380.49 372.42" style="fill:#f5f5f5"></polygon><polygon points="372.49 382.62 366.5 382.62 366.49 373.63 372.49 373.63 372.49 382.62" style="fill:#e6e6e6"></polygon><polygon points="378.33 382.62 372.34 382.62 372.34 373.63 378.35 373.63 378.33 382.62" style="fill:#ebebeb"></polygon><path d="M300.31,173l37.93-2.21a6.88,6.88,0,0,1,3.84.91h0c12.53,10.86,26.05,3.61,32-.67a14.8,14.8,0,0,1,7.73-2.78l42.25-2.46c15.85-.92,18.39-23.34,3.11-27.68l-.59-.16c15.76-14.76-22.28-41.74-59.4.84,2.29-13.61-32.51-6.71-42.17,12.24C320.49,139.25,288.25,162.1,300.31,173Z" style="fill:#f0f0f0"></path><path d="M148.87,184.93l-20.54-.4-1.71.73a33.74,33.74,0,0,1-29.12-1.32h0l-17.19-.33s-16-6.37-13.57-22.36,26.4-2.17,26.4-2.17-6.92-22.52,16.46-15.72,25.25,29,25.25,29S165.82,167.59,148.87,184.93Z" style="fill:#f0f0f0"></path><path d="M219.25,199.45H275.4c7.2,0,8.93-10.07,2.14-12.44l-.26-.08c7.51-6.27-9-19.47-26.89-1.19,1.4-6.09-14.52-3.89-19.39,4.42C229.27,184.7,214.08,194.19,219.25,199.45Z" style="fill:#f0f0f0"></path></g><g id="freepik--Shadow--inject-32"><ellipse id="freepik--path--inject-32" cx="245.18" cy="412.39" rx="193.89" ry="11.32" style="fill:#f5f5f5"></ellipse></g><g id="freepik--World--inject-32"><path d="M382.37,417.61q-13.8.76-27.61,1.38-5.83.25-11.69.48-55.77,2.2-111.59,1.86-60.64-.37-121.26-3.75a136.89,136.89,0,0,1,272.15,0Z" style="fill:#FC5200"></path><path d="M382.37,417.61q-13.8.76-27.61,1.38-5.83.25-11.69.48-55.77,2.2-111.59,1.86-60.64-.37-121.26-3.75a136.89,136.89,0,0,1,272.15,0Z" style="opacity:0.30000000000000004"></path><path d="M176.56,351.81c-1.58-1.2-9.16,1.39-9.18-.86,0-1.5,5.1-5.69,6.06-7.56,1.41-2.77.68-6.64,2-9.24.72-1.43,2.68-4.74,4.29-6.1,7.7-6.5,19.44-13.55,29.22-14,3.52-.17,8.35,5.87,9.14,10.58.47,2.8,0,11.11-2.47,14-3.73,4.39-11.9,4.44-16.24,7.86-5.06,4-7.51,13.34-13.33,16.47-1.62.87-4.7-.84-5.75-1.73C178.36,359.57,178.39,353.18,176.56,351.81Z" style="fill:#fff;opacity:0.7000000000000001"></path><path d="M252.27,367.44c1.65-.17,5.29-1.06,6.29-2.54,1.62-2.39,2.23-9.59.54-11.62-.71-.85-3.37-.67-4.28.07-1.18,1-.86,5.11-2,6.14s-4.5-.43-5.52.73-1.3,4.94-.51,6.1S250.84,367.58,252.27,367.44Z" style="fill:#fff;opacity:0.7000000000000001"></path><path d="M382.37,417.61q-13.8.76-27.61,1.38c-.35-1.67-.71-3.47-1.66-4.07-2.35-1.52-10.42-1.6-11,.47a5.08,5.08,0,0,0,.93,4.08q-55.77,2.2-111.59,1.86l.06-.1c5-8.25,15.79-16.68,24.7-19.61,5-1.66,12.32-2.09,16.9.57,1.75,1,2.09,6.44,3.66,8,2.26,2.19,8.53,4.72,11.62,4.91,6.48.4,15.3-.58,20-4.79,1.38-1.22,2.14-5.91,1.53-7.88-.87-2.81-5.39-7.94-8.2-8.6-2.38-.58-6.48,4.23-8.84,3.57-3.33-.94-5.34-10.28-8.63-11.07a4.14,4.14,0,0,0-3.5,1.82c-1,2.55,4.76,7.88,3.75,10.42-.8,2-6.19,5.14-7.79,3.65-1.31-1.21,2.67-5,2.35-6.73-.43-2.35-3.72-7-6-7.36-1.71-.29-4.26,3.26-5.95,3.68-2.18.55-7.06-1.92-8.91-.57-1.4,1-.56,5.67-1.94,6.74-1.94,1.49-7.82,1.61-9.62.06-2.39-2.06-3.93-10.24-1.8-12.78,1.61-1.89,8.1,2,9.4-.11.92-1.46-2.82-4.37-2.65-6.08.19-2,2.79-5.56,4.33-6.77,2.09-1.65,8.2-1,9.74-3.14,1.39-2-1.5-8.19.19-9.8,1.39-1.32,5.81-.18,7.12,1.21s.05,7.79,1.72,8.58c4.56,2.12,13.35-2,15.47-6,2-3.71,1.18-12.23-2.08-15.3-1.09-1-4.65,1.06-5.65,2.35s-.26,5.16-1.36,6.1c-1.58,1.36-6.37,1.14-8.12,0s-3.68-5.78-3.7-8a28.11,28.11,0,0,1,4.58-14.7c2.06-3.09,8.66-7.28,11.59-7.17,5.88.23,11.88,6.22,17.66,8,1.17.36,3.66.2,4.88.28,3.41.21,10.13-1.45,13.65,1,.85.58,1.6,3.25,2.48,3.71,2.85,1.52,8.52-.19,9.23-2.6.29-1-2-4.2-1.92-5.32a6.53,6.53,0,0,1,2.47-4.14A136.62,136.62,0,0,1,382.37,417.61Z" style="fill:#fff;opacity:0.7000000000000001"></path><path d="M114.5,407.89c.74.32,2.89.44,3.63-.15,1.75-1.36.22-5.82,1.66-7.36,6.1-6.56,18.41-6.1,24.14-13.18,1.6-2-.85-7.12,1.32-8.62,6.84-4.72,17.72,5.16,23.71.83,3.53-2.56,6.69-11.39,5-15.39-.3-.74-4.14,1.05-4.92.49-1.56-1.12,1-8.05-.38-8.53-4.08-1.39-10.89,2.22-15.17,4.56-1.18.65-3.26,3.26-4.41,3.63-2.44.77-7.23-.9-5.94-2.66,2.85-3.9,10.25-4.93,14.33-8.07,3.58-2.77,9.89-8.52,9.81-11.48-.1-4-17.19.51-21.46,2.66-2.52,1.27-8,6.52-10.56,7.77a136.25,136.25,0,0,0-23,51.88C112.94,405.74,113.44,407.44,114.5,407.89Z" style="fill:#fff;opacity:0.7000000000000001"></path></g><g id="freepik--Character--inject-32"><path d="M189.59,241.69a33.72,33.72,0,1,1-32.72,34.69,33.73,33.73,0,0,1,32.72-34.69m-.14-4.84a38.56,38.56,0,1,0,39.66,37.43h0a38.57,38.57,0,0,0-39.67-37.42h0Z" style="fill:#263238"></path><path d="M190.55,311.12a35.72,35.72,0,0,1-1-71.43h0a35.72,35.72,0,1,1,2.08,71.41Zm-.9-67.43a31.81,31.81,0,0,0-30.78,32.63,31.72,31.72,0,1,0,30.78-32.63Z" style="fill:#FC5200"></path><path d="M305.37,238.32A33.72,33.72,0,1,1,272.66,273h0a33.74,33.74,0,0,1,32.72-34.68m-.14-4.84a38.56,38.56,0,1,0,39.67,37.42,38.56,38.56,0,0,0-39.67-37.42Z" style="fill:#263238"></path><path d="M190.4,269.45a5.95,5.95,0,1,1-5.77,6.12A6,6,0,0,1,190.4,269.45Z" style="fill:#263238"></path><path d="M306,259.45a12.58,12.58,0,1,0,12.94,12.2A12.58,12.58,0,0,0,306,259.45Zm.6,20.57a8,8,0,1,1,7.77-8.24A8,8,0,0,1,306.59,280Z" style="fill:#263238"></path><path d="M306,259.45a12.58,12.58,0,1,0,12.94,12.2A12.58,12.58,0,0,0,306,259.45Zm.6,20.57a8,8,0,1,1,7.77-8.24A8,8,0,0,1,306.59,280Z" style="fill:#fff;opacity:0.5"></path><path d="M190.2,262.82A12.58,12.58,0,1,0,203.14,275,12.59,12.59,0,0,0,190.2,262.82Zm.59,20.58a8,8,0,1,1,7.77-8.24A8,8,0,0,1,190.79,283.4Z" style="fill:#263238"></path><path d="M190.2,262.82A12.58,12.58,0,1,0,203.14,275,12.59,12.59,0,0,0,190.2,262.82Zm.59,20.58a8,8,0,1,1,7.77-8.24A8,8,0,0,1,190.79,283.4Z" style="fill:#fff;opacity:0.5"></path><path d="M187.56,272.18h0a4.16,4.16,0,0,1,1.11-.18l.06,0,.07,0,52.86-5.69a7.17,7.17,0,0,1,2.48,14,7.06,7.06,0,0,1-1.71.31L189,280.23h-.06a4.14,4.14,0,0,1-1.38-8.08m-.54-1.91a6,6,0,0,0,2,11.65l53.5.34a8.78,8.78,0,0,0,2.21-.4,9,9,0,0,0-3.19-17.53L188.6,270a5.76,5.76,0,0,0-1.6.26Z" style="fill:#FC5200"></path><path d="M242.37,278.44h-.26a1.83,1.83,0,0,1-1.45-1.05l-18.9-59.26a1.81,1.81,0,1,1,3.3-1.5l17.65,56.49,47.58-51a1.82,1.82,0,0,1,2.87,2.22l-49.39,53.4A1.79,1.79,0,0,1,242.37,278.44Z" style="fill:#263238"></path><path d="M190.61,276.61a1.22,1.22,0,0,1-1.25-1.18,1.15,1.15,0,0,1,.1-.52l40.87-31.2a1.21,1.21,0,1,1,2.27.85l0,.12-40.87,31.2A1.21,1.21,0,0,1,190.61,276.61Z" style="fill:#263238"></path><path d="M223.12,200.08s-1.77,15.93-.47,15.66S256,214,256,214L243.3,245.78l7.58.86s23-34,21.23-41.74S223.12,200.08,223.12,200.08Z" style="fill:#FC5200"></path><g style="opacity:0.30000000000000004"><path d="M223.12,200.08s-1.77,15.93-.47,15.66S256,214,256,214L243.3,245.78l7.58.86s23-34,21.23-41.74S223.12,200.08,223.12,200.08Z"></path></g><path d="M226.79,209.32l3,6c5.48-.24,16.75-.87,16.75-.87C242.08,211,231,208.44,226.79,209.32Z" style="opacity:0.2;isolation:isolate"></path><polygon points="240.27 256.91 245.94 256.33 250.05 245.64 244.78 245.24 240.27 256.91" style="fill:#ff8b7b"></polygon><polygon points="250.05 245.65 248.06 250.83 242.65 250.75 244.77 245.24 250.05 245.65" style="opacity:0.2;isolation:isolate"></polygon><polygon points="252.29 248.23 241.85 247.84 241.97 244.47 253.06 244.71 252.29 248.23" style="fill:#FC5200"></polygon><path d="M245.45,254.89l-5.66.06a.46.46,0,0,0-.44.36l-1,4.61a.74.74,0,0,0,.58.89l.15,0c2-.06,5-.2,7.55-.22,3,0,4,.15,7.46.12,2.13,0,2.7-2.18,1.8-2.37-4-.84-5.72-.95-9.24-3.07A2.46,2.46,0,0,0,245.45,254.89Z" style="fill:#FC5200"></path><path d="M249.15,255.86a7.73,7.73,0,0,1-1.36-.12.14.14,0,0,1-.1-.1.1.1,0,0,1,.05-.11c.18-.12,1.82-1.15,2.4-.9a.38.38,0,0,1,.22.32.7.7,0,0,1-.23.62A1.64,1.64,0,0,1,249.15,255.86Zm-1-.3a2.6,2.6,0,0,0,1.82-.16.49.49,0,0,0,.15-.43.14.14,0,0,0-.09-.13c-.28-.13-1.21.32-1.88.7Z" style="fill:#FC5200"></path><path d="M247.81,255.73h-.08a.16.16,0,0,1,0-.11c0-.06.07-1.47.65-1.95a.64.64,0,0,1,.51-.17h0a.4.4,0,0,1,.41.28c.13.57-.86,1.65-1.39,2Zm1-2a.5.5,0,0,0-.28.12,2.67,2.67,0,0,0-.56,1.55c.51-.4,1.17-1.24,1.07-1.55,0,0,0-.1-.19-.11h0Z" style="fill:#FC5200"></path><path d="M306.33,307.74a35.72,35.72,0,0,1-1-71.42h0a35.72,35.72,0,0,1,2.09,71.41Zm-.9-67.43A31.82,31.82,0,0,0,274.65,273a31.73,31.73,0,1,0,30.78-32.63Z" style="fill:#FC5200"></path><path d="M287.8,217.13l-56.65,25.16a1.82,1.82,0,1,1-.44-3.62l56.2-24.48Z" style="fill:#263238"></path><path d="M241.28,302.21l-10.68.31a1.21,1.21,0,0,1-.07-2.42l10.68-.31a1.21,1.21,0,1,1,.07,2.42Z" style="fill:#263238"></path><path d="M236.54,301.49a1.19,1.19,0,0,1-1.21-1.5l9.57-38.88a1.21,1.21,0,0,1,2.34.58l-9.57,38.86A1.2,1.2,0,0,1,236.54,301.49Z" style="fill:#263238"></path><path d="M250.33,269l-10.69.31a1.21,1.21,0,0,1-.07-2.42l10.69-.31a1.21,1.21,0,0,1,.07,2.42Z" style="fill:#263238"></path><path d="M251.34,262.72l-10.68.31a1.21,1.21,0,1,1-.07-2.42l10.68-.31a1.21,1.21,0,0,1,.07,2.42Z" style="fill:#263238"></path><path d="M306.86,273.74a1.73,1.73,0,0,1-.45.1,1.82,1.82,0,0,1-1.8-1.32l-7.83-26-8.84-29.42-.14.06-.89-2.94,2.13-.93a1.81,1.81,0,0,1,1.49.52,1.71,1.71,0,0,1,.47.79l17.1,56.93A1.8,1.8,0,0,1,306.86,273.74Z" style="fill:#263238"></path><path d="M289,213.26l-2.13.93-2.14-7a1.82,1.82,0,0,1,3.31-1.5l2.45,8.07A1.81,1.81,0,0,0,289,213.26Z" style="fill:#263238"></path><path d="M241.62,273.16l-49.89,1.13a1.17,1.17,0,0,0-1.15,1.21h0a1.18,1.18,0,0,0,1.14,1.15l50.65,1.79Z" style="fill:#263238"></path><path d="M286.7,214.53l3.95,12.61a.62.62,0,0,0,.78.41l3.05-1a.61.61,0,0,0,.4-.77L291,213.07a.61.61,0,0,0-.8-.4l-3.11,1.09A.62.62,0,0,0,286.7,214.53Z" style="fill:#FC5200"></path><polygon points="285.43 209.42 283.06 201.62 288.75 199.58 289.68 203.1 288.86 208.32 285.43 209.42" style="fill:#FC5200"></polygon><path d="M277.55,205a2.5,2.5,0,0,1-.3-5L293,198.11a2.5,2.5,0,1,1,.6,5L277.86,205A1.62,1.62,0,0,1,277.55,205Z" style="fill:#FC5200"></path><path d="M207,213a.87.87,0,0,0-.45,1.6c3,1.91,8,5.11,9.87,6.47a1.74,1.74,0,0,0,1.76.16l.82-.4a42.18,42.18,0,0,1,17.15-4.19l2.54-.07a1.72,1.72,0,0,0,1.14-3l-1-1a1.73,1.73,0,0,0-1.24-.48Z" style="fill:#263238"></path><path d="M241.25,268.12a6,6,0,1,1-5.78,6.12h0a6,6,0,0,1,5.78-6.12m-.09-3a9,9,0,1,0,9.24,8.71h0a9,9,0,0,0-9.23-8.72Z" style="fill:#FC5200"></path><polygon points="229.47 296.17 234.63 295.63 234.33 284.3 229.17 284.84 229.47 296.17" style="fill:#ff8b7b"></polygon><path d="M235.44,294.5l-6.31.24a.45.45,0,0,0-.42.35l-.85,4.39a.73.73,0,0,0,.62.83h.17c2-.11,3.51-.28,6-.38,1.57,0,6.31-.09,8.47-.18s2.36-2.11,1.47-2.27c-4-.66-7.07-1.68-8.39-2.71A1.28,1.28,0,0,0,235.44,294.5Z" style="fill:#FC5200"></path><polygon points="229.17 284.85 234.33 284.31 234.48 290.14 229.32 290.68 229.17 284.85" style="opacity:0.2;isolation:isolate"></polygon><path d="M223.53,199.14s13.76,29.2,13.21,43.51c-.59,15.68-.11,45-.11,45l-8.95.93s-4.41-27.91-4-43.19C224.17,228,198.9,208.74,206,196,214.56,197.42,223.53,199.14,223.53,199.14Z" style="fill:#FC5200"></path><g style="opacity:0.30000000000000004"><path d="M223.53,199.14s13.76,29.2,13.21,43.51c-.59,15.68-.11,45-.11,45l-8.95.93s-4.41-27.91-4-43.19C224.17,228,198.9,208.74,206,196,214.56,197.42,223.53,199.14,223.53,199.14Z"></path></g><polygon points="237.42 288.57 226.34 289.93 225.93 286.81 237.8 285.15 237.42 288.57" style="fill:#FC5200"></polygon><path d="M237.19,295.29a7.73,7.73,0,0,1-1.36-.12.14.14,0,0,1-.1-.1.1.1,0,0,1,.05-.11c.18-.12,1.82-1.15,2.4-.9a.38.38,0,0,1,.22.32.7.7,0,0,1-.23.62A1.64,1.64,0,0,1,237.19,295.29Zm-1-.3a2.6,2.6,0,0,0,1.82-.16.49.49,0,0,0,.15-.43.14.14,0,0,0-.09-.13c-.28-.13-1.21.32-1.88.7Z" style="fill:#FC5200"></path><path d="M235.85,295.17h-.08a.16.16,0,0,1-.05-.11c0-.06.07-1.47.65-1.95a.64.64,0,0,1,.51-.17h0a.4.4,0,0,1,.41.28c.13.57-.86,1.65-1.39,1.95Zm1-2a.5.5,0,0,0-.28.12,2.67,2.67,0,0,0-.56,1.55c.51-.4,1.17-1.24,1.07-1.55,0,0,0-.1-.19-.11h0Z" style="fill:#FC5200"></path><path d="M227.18,156.15l13.54,2c7.59,1.13,15.44-2.76,22-6.79l3.15,3.29S252,164.87,245.14,164.9c-3.89,0-10-1-14.53-1.93a4.84,4.84,0,0,1-3.43-6.82Z" style="fill:#263238"></path><path d="M270.75,145.38c-.38,2.21-.75,4.42-1.13,6.64-1.26.8-2.35,1.88-3.61,2.69a10.63,10.63,0,0,1-3.37-3.13c.23-1,.65-2,.88-3.05.39-1.71,2.48-2.83,3.63-4.15C268.19,144.62,269.72,145.14,270.75,145.38Z" style="fill:#ff8b7b"></path><path d="M230.06,166.61l10.14-.27,1.4-9.43s-5.64-1.11-10.93-2.18C230.45,157.79,230.28,163.54,230.06,166.61Z" style="fill:#FC5200"></path><path d="M230.06,166.61l10.14-.27,1.4-9.43s-5.64-1.11-10.93-2.18C230.45,157.79,230.28,163.54,230.06,166.61Z" style="opacity:0.1"></path><polygon points="240.2 166.34 230.75 164.59 230.7 166.62 240.2 166.34" style="opacity:0.2;isolation:isolate"></polygon><path d="M206.5,159.7c2,17.74-.35,29.77-1.82,40.7,3.61.85,10.71,1.16,17.26.91a71.51,71.51,0,0,0,10.75-1.59c-.67-10.5.95-31.5,1.69-40.25a4.47,4.47,0,0,0-3.72-4.8h-.08c-.75-.12-1.56-.23-2.4-.33-.48-.05-1-.1-1.43-.13a100.65,100.65,0,0,0-11.78.2c-.74,0-1.49.11-2.22.19s-1.35.16-2,.25l-.87.13a4.09,4.09,0,0,0-3.42,4.68Z" style="fill:#FC5200"></path><path d="M211,166.19c.11,2.43-1.8,7.46-3.58,10.63.12-3,.13-6.26-.07-9.55Z" style="fill:#FC5200"></path><path d="M211,166.19c.11,2.43-1.8,7.46-3.58,10.63.12-3,.13-6.26-.07-9.55Z" style="opacity:0.2;isolation:isolate"></path><path d="M215.94,141.13c.8,3.78,1.66,10.7-.95,13.28,2.09,2,4.83,4.33,9.33,4.41s3.65-3,2.45-4.61c-4.25-.94-4.19-4.07-3.5-7Z" style="fill:#ff8b7b"></path><path d="M218.92,143.58l4.33,3.58a11.23,11.23,0,0,0-.32,2.09A5.78,5.78,0,0,1,218.6,146C218.19,144.89,218.51,143.73,218.92,143.58Z" style="opacity:0.2;isolation:isolate"></path><path d="M212.58,137c1.59,4.89,2.27,7.83,5.43,9.73,4.77,2.85,10.31-1,10.21-6.29-.09-4.74-2.67-11.93-8-12.66a7,7,0,0,0-7.6,9.22Z" style="fill:#ff8b7b"></path><path d="M215.88,138.23a19,19,0,0,0,1.29,2.83,9.3,9.3,0,0,0-3.19-.4,10.69,10.69,0,0,1-1.13.06,1.54,1.54,0,0,1-1-.4,1.32,1.32,0,0,1-.29-1.32,2.1,2.1,0,0,1,.86-1.11,2.55,2.55,0,0,1,1.48-.45C214.4,137.46,215.7,137.74,215.88,138.23Z" style="fill:#263238"></path><path d="M214.85,133.28s.62,2.62,1.46,5c-.62-.06-3.25,1.37-3.13,2.16.28,1.79,2,3.21,3.6,4.06,0,.56-.08,2.17-.08,2.17-1,.73-2.23,1-3.25,1.72a5.61,5.61,0,0,1-1.73.94,1.88,1.88,0,0,1-1.83-.39,1.18,1.18,0,0,1,.08-1.73,2.45,2.45,0,0,1-2.7-1.45,2.57,2.57,0,0,1,1-3,1.52,1.52,0,0,1-2-.45,2.32,2.32,0,0,1-.08-2.16,4.91,4.91,0,0,1,1.42-1.72.9.9,0,0,1-1.24-.24,1.85,1.85,0,0,1-.23-1.33,5.18,5.18,0,0,1,2-3.42c4.17-3.18,12-9.6,15.55-4.11l-.81-.22c-2.06.45-.92,1.09-2.08,1.25A10.52,10.52,0,0,0,214.85,133.28Z" style="fill:#263238"></path><path d="M211.83,142.58a4.84,4.84,0,0,0,3.48,1.33c1.72-.06,2.05-1.72,1.14-3.06s-2.7-2.64-4.2-1.92A2.18,2.18,0,0,0,211.83,142.58Z" style="fill:#ff8b7b"></path><path d="M220.47,136.4c.13.39.41.67.67.6s.39-.45.29-.85-.4-.68-.67-.61S220.37,136,220.47,136.4Z" style="fill:#263238"></path><path d="M225,135.21c.12.4.4.68.67.61s.4-.45.29-.86-.4-.67-.67-.6S224.94,134.81,225,135.21Z" style="fill:#263238"></path><path d="M223.65,135.8a14.62,14.62,0,0,0,2.8,3,2.4,2.4,0,0,1-1.83.86Z" style="fill:#ff5652"></path><path d="M223.2,141.13a3.44,3.44,0,0,1-2.62-.73.12.12,0,0,1,0-.17.11.11,0,0,1,.17,0,3.34,3.34,0,0,0,2.94.57.14.14,0,0,1,.15.09h0a.13.13,0,0,1-.09.15A3.41,3.41,0,0,1,223.2,141.13Z" style="fill:#263238"></path><path d="M218.68,135.28h-.12a.25.25,0,0,1-.13-.32h0a2.42,2.42,0,0,1,1.68-1.49.25.25,0,0,1,.28.2h0a.25.25,0,0,1-.19.29h0a1.89,1.89,0,0,0-1.32,1.18A.24.24,0,0,1,218.68,135.28Z" style="fill:#263238"></path><path d="M226.61,133.13a.27.27,0,0,1-.22-.08,1.94,1.94,0,0,0-1.61-.73.25.25,0,1,1-.07-.49h0a2.41,2.41,0,0,1,2,.9.24.24,0,0,1,0,.34h0A.18.18,0,0,1,226.61,133.13Z" style="fill:#263238"></path><path d="M211.47,157.39l-14.7,4.28c-8.22,2.39-17.5-.73-25.33-4.22l-3,4.12s16.83,9.22,24.44,8.21c4.32-.57,10.91-2.64,15.8-4.32a5.41,5.41,0,0,0,2.78-8.07Z" style="fill:#263238"></path><path d="M161.6,152l2.25,7.19c1.52.7,2.88,1.73,4.4,2.43a11.81,11.81,0,0,0,3.27-4c-.42-1.11-1-2.14-1.44-3.25-.69-1.83-3.17-2.76-4.65-4C164.32,150.8,162.71,151.6,161.6,152Z" style="fill:#ff8b7b"></path><path d="M208.91,155.17c-6.18,2.27-6.15,2.71-12.62,3.92l5.32,12.11s4.87-.39,8.12-3.28c2.4-2.13,4.21-5,3.43-9.23C212.79,156.7,210.81,154.47,208.91,155.17Z" style="fill:#FC5200"></path><path d="M208.91,155.17c-6.18,2.27-6.15,2.71-12.62,3.92l5.32,12.11s4.87-.39,8.12-3.28c2.4-2.13,4.21-5,3.43-9.23C212.79,156.7,210.81,154.47,208.91,155.17Z" style="fill:#fff;opacity:0.1"></path></g></svg>