<svg xmlns="http://www.w3.org/2000/svg" viewBox="0 0 500 500"><g id="freepik--background-complete--inject-177"><path d="M238.4,337.8H45.3a5.71,5.71,0,0,1-5.71-5.71V60.66A5.71,5.71,0,0,1,45.3,55H238.4a5.71,5.71,0,0,1,5.71,5.71V332.09A5.71,5.71,0,0,1,238.4,337.8ZM45.3,55.2a5.47,5.47,0,0,0-5.46,5.46V332.09a5.47,5.47,0,0,0,5.46,5.46H238.4a5.47,5.47,0,0,0,5.46-5.46V60.66a5.47,5.47,0,0,0-5.46-5.46Z" style="fill:#ebebeb"></path><path d="M454.7,337.8H261.6a5.71,5.71,0,0,1-5.71-5.71V60.66A5.71,5.71,0,0,1,261.6,55H454.7a5.71,5.71,0,0,1,5.71,5.71V332.09A5.71,5.71,0,0,1,454.7,337.8ZM261.6,55.2a5.47,5.47,0,0,0-5.46,5.46V332.09a5.47,5.47,0,0,0,5.46,5.46H454.7a5.47,5.47,0,0,0,5.46-5.46V60.66a5.47,5.47,0,0,0-5.46-5.46Z" style="fill:#ebebeb"></path><polygon points="248.24 77 252.32 77 224.85 239.01 220.76 239.01 248.24 77" style="fill:#e0e0e0"></polygon><polygon points="289.76 103.76 245.74 103.76 246.14 101.41 290.16 101.41 289.76 103.76" style="fill:#e0e0e0"></polygon><polygon points="284.98 131.97 240.96 131.97 241.35 129.62 285.37 129.62 284.98 131.97" style="fill:#e0e0e0"></polygon><polygon points="280.19 160.19 236.17 160.19 236.57 157.84 280.59 157.84 280.19 160.19" style="fill:#e0e0e0"></polygon><polygon points="275.4 188.4 231.38 188.4 231.78 186.05 275.8 186.05 275.4 188.4" style="fill:#e0e0e0"></polygon><polygon points="270.62 216.62 226.6 216.62 227 214.27 271.02 214.27 270.62 216.62" style="fill:#e0e0e0"></polygon><polygon points="292.25 77 296.34 77 268.87 239.01 264.77 239.01 292.25 77" style="fill:#e0e0e0"></polygon><path d="M439,231.77l-5.4,5a8.17,8.17,0,0,1-6.21,2.17c-63.55-4.76-110.11-128.83-135.57-153.78a8.09,8.09,0,0,1,.1-11.7h0C315.28,73.51,366.28,231.77,439,231.77Z" style="fill:#ebebeb"></path><path d="M288.58,79.92c21.51,0,68.38,152.54,135.16,152.54-5.64,3.15-24.09,5.37-36.64,2.32-66.78,0-115.31-154.86-136.82-154.86Z" style="fill:#e0e0e0"></path><path d="M394.78,231.77l-5.4,5a8.17,8.17,0,0,1-6.21,2.17C319.62,234.23,273.06,110.16,247.6,85.21a8.09,8.09,0,0,1,.1-11.7h0C271.11,73.51,322.12,231.77,394.78,231.77Z" style="fill:#ebebeb"></path><path d="M221.27,223.94c-11.3-9.58-16.47-4.23-18.79,3.9.56-19.76-1.62-48.62-17-63.22-24.77-23.51-26.35,22.08-20,35.89-17-39-45.31-61.33-68.46-58.21-35.61,4.8,15,81.41,15,81.41S71.51,201,66.68,229.08s33.78,42.55,33.78,42.55-29.88.13-27.59,19.12,43.85,21.33,43.85,21.33C157.39,317,193.13,308.2,224.41,287,226.94,276.3,234.81,235.44,221.27,223.94Z" style="fill:#f0f0f0"></path><path d="M297.21,226.05c10.73-12.2,15.84-6.83,18.26,2-1-22.15.52-54.86,15.11-73.21,23.47-29.54,26,21.5,20.13,37.83,15.58-46,42.53-74.65,65-74.06,34.56.91-12.79,93.4-12.79,93.4s38.7-30.69,44,.31-31.79,52.09-31.79,52.09,28.93-3.62,27.12,18-42,29.5-42,29.5c-42.3,7.64-79.72,7-104.74-14.65C292.83,285.61,284.34,240.67,297.21,226.05Z" style="fill:#f5f5f5"></path><path d="M350.07,242.25c-12.45-8.81-28.45-1.05-32.17,2.4,6.66-10.39,37.27-54.23,22.5-57.56-15.17-3.41-29.66,11.65-31.09,28.3,2-23.68,9-65.8-13.42-58.22-19.66,6.64-19.25,49.61-19.25,49.61s-12.92-46.38-24.85-22.68C244,199.52,255.71,228,255.71,228s-15.93-21.25-19.18-.61C233,250,249.22,276.68,249.22,276.68c13.55,12.57,34.77,13.44,59.89,8.35C321,266.73,360.33,249.52,350.07,242.25Z" style="fill:#ebebeb"></path><path d="M46,335.39c3.66-7.81,13.69-8.47,16.48-7.82-6.17-3.24-33.47-16.23-27.14-22,6.49-5.92,17.83-2.57,23.19,5.21C50.87,299.73,35.66,281,48.8,278.43c11.52-2.24,23.34,19,23.34,19S65.51,271,78,279.34C86.14,284.74,88.34,302,88.34,302s1.89-14.9,9.25-5.66c8.07,10.12,7.56,27.8,7.56,27.8-3.14,10-15.18,37-28.95,41.5C65.25,360,43,341.83,46,335.39Z" style="fill:#e0e0e0"></path><path d="M394.32,274.71c8.62-.17,14.67,14.91,15.41,26.87,1.22-6.87,7.38-28.89,15.57-31.38,9.36-2.85,9.77,19,4,26.44,8.24-10.61,21.52-30.77,27.92-19,5.61,10.31-11.06,28-11.06,28s23.17-14.29,19,.13c-2.7,9.38-18.47,16.69-18.47,16.69s14.78-2.7,8.2,7.11c-7.21,10.76-24.22,15.61-24.22,15.61-10.45,0-39.83-3.3-48.3-15.06C384.45,317.93,375.7,275.08,394.32,274.71Z" style="fill:#e0e0e0"></path></g><g id="freepik--Pool--inject-177"><path d="M56.83,377.26c0-39.22,84.41-55.46,188.54-55.46S433.91,338,433.91,377.26c0,46.84-84.41,73.28-188.54,73.28S56.83,424.1,56.83,377.26Z" style="fill:#FC5200"></path><path d="M245.37,321.8c-88.85,0-163.36,11.82-183.29,39.67,19.92,34.75,94.43,54,183.29,54s163.37-19.26,183.29-54C408.73,333.62,334.22,321.8,245.37,321.8Z" style="opacity:0.2"></path><path d="M56.83,333.44c0-39.22,84.41-55.46,188.54-55.46s188.54,16.24,188.54,55.46c0,46.84-84.41,73.28-188.54,73.28S56.83,380.28,56.83,333.44Z" style="fill:#FC5200"></path><path d="M404.29,322.68c-.24-7.44-6.46-13.4-18.78-18.22-3.77-1.47-8.28-1.78-13.23-2a102.56,102.56,0,0,1-14.84-1.32,78.17,78.17,0,0,1-12.56-4.08,60.06,60.06,0,0,0-14.6-4c-4.47-.49-9.17.15-14,.81a72.53,72.53,0,0,1-14.16,1c-4.42-.27-8.91-1.5-13.48-2.72s-9.43-2.46-14.3-2.58c-4.55-.13-9.17.82-13.86,1.8a70.58,70.58,0,0,1-14.14,1.95,71.82,71.82,0,0,1-14.39-2c-4.7-1-9.34-1.89-13.91-1.77a62.17,62.17,0,0,0-14.12,2.51c-4.73,1.23-9.37,2.53-13.95,2.81-5.05.3-10.05-.42-14.91-1.07-4.67-.63-9.23-1.2-13.56-.72a59.16,59.16,0,0,0-14,3.72c-4.67,1.73-9.11,3.54-13.45,4.36a114.41,114.41,0,0,1-15.85,1.36c-4.66.21-8.92.56-12.52,1.94-12.56,4.84-19,10.81-19.2,18.25a11.69,11.69,0,0,0-.26,2.44c0,24,71.27,43.42,159.19,43.42s159.19-19.43,159.19-43.42A11.51,11.51,0,0,0,404.29,322.68Z" style="fill:#fff;opacity:0.6000000000000001"></path><path d="M267.78,350.5c-3,.26-6,.41-9,.62s-5.95.44-8.86.89a35.51,35.51,0,0,0-4.3.83,12,12,0,0,0-3.83,1.58,1.91,1.91,0,0,0-.89,1.28,2.31,2.31,0,0,0,.84,1.52,14.17,14.17,0,0,0,3.73,2.32,10.84,10.84,0,0,1-4.35-1.57,3.35,3.35,0,0,1-1.5-2.19,2.44,2.44,0,0,1,.32-1.47,3.8,3.8,0,0,1,.86-1.06,7.89,7.89,0,0,1,2.09-1.34,19.38,19.38,0,0,1,2.21-.86,36.32,36.32,0,0,1,4.53-1,54.73,54.73,0,0,1,9.12-.47A58.43,58.43,0,0,1,267.78,350.5Z" style="fill:#fff"></path><path d="M262.12,351.59a6.26,6.26,0,1,1-6.25-6.25A6.25,6.25,0,0,1,262.12,351.59Z" style="fill:#FC5200"></path><path d="M254.82,349.3c-1,.7-2.25.73-2.69.07s.05-1.75,1.09-2.45,2.25-.73,2.69-.07S255.86,348.61,254.82,349.3Z" style="fill:#fff"></path><path d="M252.61,351.68c-.41,0-.73-.29-.7-.55s.39-.44.8-.39.73.29.7.55S253,351.73,252.61,351.68Z" style="fill:#fff"></path><path d="M289,330.15a5.86,5.86,0,1,1-7.79-2.84A5.87,5.87,0,0,1,289,330.15Z" style="fill:#FC5200;opacity:0.8"></path><path d="M281.22,332.11c-.46,1.08-1.39,1.73-2.07,1.43s-.87-1.4-.4-2.48,1.39-1.73,2.07-1.44S281.68,331,281.22,332.11Z" style="fill:#fff"></path><path d="M281.64,329.55c-.26-.3-.32-.67-.13-.83s.54-.06.8.23.32.66.14.83S281.9,329.84,281.64,329.55Z" style="fill:#fff"></path><path d="M218.19,307.35a4.79,4.79,0,1,1-4.58-5A4.79,4.79,0,0,1,218.19,307.35Z" style="fill:#263238;opacity:0.8"></path><path d="M211.83,305.85c-.74.61-1.66.73-2,.26s-.1-1.35.64-2,1.66-.73,2-.26S212.57,305.24,211.83,305.85Z" style="fill:#fff"></path><path d="M213.1,304.15c-.08-.31,0-.6.21-.65s.42.16.5.47,0,.6-.21.65S213.18,304.46,213.1,304.15Z" style="fill:#fff"></path><path d="M226.24,314.07a35.78,35.78,0,0,1-7.18,1.41,40.21,40.21,0,0,1-7.36,0,21.81,21.81,0,0,1-7.24-1.79,5.79,5.79,0,0,1-1.63-1.12,2.6,2.6,0,0,1-.61-.92,2.36,2.36,0,0,1-.11-.59,2.13,2.13,0,0,1,.11-.58,3.11,3.11,0,0,1,1.39-1.43,8.06,8.06,0,0,1,.83-.42l.86-.31a12.87,12.87,0,0,0-1.44,1.08,2.62,2.62,0,0,0-.91,1.3c-.11.44.17.8.57,1.12a5.35,5.35,0,0,0,1.44.77,18.72,18.72,0,0,0,3.37.87,34.22,34.22,0,0,0,3.52.47c2.36.24,4.75.31,7.15.32S223.8,314.17,226.24,314.07Z" style="fill:#fff"></path><path d="M124.36,311.64c-3.15.5-6.28,1-9.37,1.56-1.54.34-3.08.63-4.58,1.05a37.57,37.57,0,0,0-4.44,1.41,20.74,20.74,0,0,0-4.08,2,9.31,9.31,0,0,0-3.08,3.1,5.6,5.6,0,0,0-.5,4.22,10.23,10.23,0,0,0,2.22,4.05,9.15,9.15,0,0,1-3-3.81,6.2,6.2,0,0,1,.14-5,9.71,9.71,0,0,1,3.33-3.79,20.22,20.22,0,0,1,4.37-2.28,39.52,39.52,0,0,1,9.4-2.2A56.59,56.59,0,0,1,124.36,311.64Z" style="fill:#fff"></path><path d="M329.32,344.32q1.68-.07,3.36,0c1.13,0,2.25.07,3.37.18a19.34,19.34,0,0,1,6.71,1.63,4.52,4.52,0,0,1,1.55,1.26,2.43,2.43,0,0,1,.32,2.3,4.12,4.12,0,0,1-1.26,1.63,5.77,5.77,0,0,1-1.61,1,41.06,41.06,0,0,1-6.53,2,111.7,111.7,0,0,1-13.29,2.13,133.62,133.62,0,0,1-13.41.65c4.45-.48,8.87-1,13.27-1.72s8.78-1.47,13.07-2.54a40.13,40.13,0,0,0,6.24-1.95,3.93,3.93,0,0,0,2.07-1.71.85.85,0,0,0-.12-.86,3.31,3.31,0,0,0-1-.86,22.44,22.44,0,0,0-6.13-1.94c-1.09-.21-2.18-.4-3.28-.59Z" style="fill:#fff"></path></g><g id="freepik--character-1--inject-177"><path d="M175.55,268.57a12.89,12.89,0,0,1-2,2.73,8.33,8.33,0,0,1-2.32-3.3,11.24,11.24,0,0,0,1.23,4.41,26.88,26.88,0,0,1-6,4.18,8.7,8.7,0,0,1-2.16-4.47,11,11,0,0,0,.51,5.29l-.34.15c-5.48,2.45-12.5,3-17.67,2.93a10.77,10.77,0,0,0-1.37-5.47,9,9,0,0,1-.65,5.43c-3.11-.11-5.18-.37-5.18-.37s4.42-6,.83-12c-4.62-7.7-4.36-15.52,3.37-15.62,3.27-12.71,21.84-8.5,24.52,2.23A34.14,34.14,0,0,0,175.55,268.57Z" style="fill:#263238"></path><path d="M165.29,283.86l1.22-.84,1.29-.95c.86-.64,1.7-1.32,2.52-2a48.62,48.62,0,0,0,4.63-4.43,38.26,38.26,0,0,0,3.79-4.95,24.84,24.84,0,0,0,2.57-5.39l0,2.18a57.44,57.44,0,0,0-2.05-5.71c-.81-2-1.63-4-2.49-6l-2.57-6c-.84-2-1.72-4-2.54-6.06h0a2.15,2.15,0,0,1,3.75-2.05c1.29,1.82,2.48,3.67,3.7,5.53s2.33,3.77,3.47,5.68,2.21,3.86,3.25,5.86a50.73,50.73,0,0,1,2.94,6.47,3.33,3.33,0,0,1,.1,1.92l-.07.25a30,30,0,0,1-3,7.49,37.7,37.7,0,0,1-4.48,6.39,50.17,50.17,0,0,1-5.38,5.43c-1,.82-1.94,1.61-3,2.37-.51.38-1,.76-1.55,1.12s-1,.68-1.71,1.1a4.32,4.32,0,0,1-4.59-7.32Z" style="fill:#ffb573"></path><path d="M174.06,247.28l-5.29-2.73,4.69-6.57s4.06,2.3,4.09,6.75Z" style="fill:#ffb573"></path><path d="M167.37,238.11l1.6-1.3a2.5,2.5,0,0,1,3.23.07l1.26,1.1-4.69,6.57-2-3.21A2.5,2.5,0,0,1,167.37,238.11Z" style="fill:#ffb573"></path><path d="M165.51,331.36c-5.88.68-11.73,1.47-17.51,2.52-2.88.56-5.76,1.14-8.55,1.95a35.41,35.41,0,0,0-4.07,1.39,11.51,11.51,0,0,0-1.78,1,3,3,0,0,0-.64.56c-.15.18-.19.31-.18.34a.74.74,0,0,0,.21.33,3.15,3.15,0,0,0,.7.48,10.59,10.59,0,0,0,1.87.77,35,35,0,0,0,4.19,1c2.86.52,5.78.79,8.71,1.05,5.86.44,11.76.63,17.68.71a122.53,122.53,0,0,1-17.77.78,76.83,76.83,0,0,1-8.92-.75,33.74,33.74,0,0,1-4.45-1,12.55,12.55,0,0,1-2.23-.9,4.79,4.79,0,0,1-1.11-.78,2.21,2.21,0,0,1-.17-3.25,5.27,5.27,0,0,1,1-.9,13.13,13.13,0,0,1,2.12-1.12,33.17,33.17,0,0,1,4.33-1.42,76.19,76.19,0,0,1,8.8-1.67A121.13,121.13,0,0,1,165.51,331.36Z" style="fill:#fff"></path><path d="M168.41,328.69a46.6,46.6,0,0,1,8.17-1.82,40.24,40.24,0,0,1,8.44-.31,22.59,22.59,0,0,1,4.25.76,11.82,11.82,0,0,1,2.07.84,5.6,5.6,0,0,1,1.87,1.49,3.15,3.15,0,0,1,.67,2.48,4.08,4.08,0,0,1-1.17,2.07,9.71,9.71,0,0,1-3.69,2.13,12.41,12.41,0,0,0,3-2.75,3,3,0,0,0,.64-1.61,1.8,1.8,0,0,0-.57-1.34,7.16,7.16,0,0,0-3.27-1.54,24,24,0,0,0-3.93-.6,71.26,71.26,0,0,0-8.15-.12C174,328.46,171.21,328.62,168.41,328.69Z" style="fill:#fff"></path><path d="M150.82,338.91a136.79,136.79,0,0,0,17.24-1.4c2.83-.45,5.66-.92,8.42-1.6,1.37-.34,2.75-.68,4.07-1.11.66-.22,1.31-.45,1.91-.71a7.82,7.82,0,0,0,.82-.41l.29-.19c.07,0,.08-.12,0,.08a1.05,1.05,0,0,0-.09.7,1,1,0,0,0,.2.42c.09.09,0,0,0,0a4.53,4.53,0,0,0-.76-.31,19.82,19.82,0,0,0-1.95-.49c-1.36-.28-2.78-.48-4.19-.67-2.83-.42-5.7-.66-8.57-1-5.75-.55-11.53-1-17.32-1.61a139.26,139.26,0,0,1,17.45-.65c2.92,0,5.83.24,8.76.51,1.47.14,2.93.35,4.41.62a20.1,20.1,0,0,1,2.27.54,6.2,6.2,0,0,1,1.26.5,2.71,2.71,0,0,1,.83.62,1.83,1.83,0,0,1,.3,2.12,2.54,2.54,0,0,1-.77.87,5.3,5.3,0,0,1-.62.4,11.65,11.65,0,0,1-1.13.55c-.74.3-1.46.55-2.18.77a42.38,42.38,0,0,1-4.34,1.09,72.3,72.3,0,0,1-8.75,1.16A68.23,68.23,0,0,1,150.82,338.91Z" style="fill:#fff"></path><path d="M178.09,292.89c1.31,7.86,2.63,20.78,2.75,41.17-6.38,5.6-28.89,5.7-36.75,3.88,1.68-6.58,2.82-19.49-1.79-40.76-1.42-6.53,2.43-13.06,8.33-14.14l.16,0a112.42,112.42,0,0,1,14.55-1.79h.15C171.66,281.11,177,286.08,178.09,292.89Z" style="fill:#FC5200"></path><path d="M178.09,292.89c1.31,7.86,2.63,20.78,2.75,41.17-6.38,5.6-28.89,5.7-36.75,3.88,1.68-6.58,2.82-19.49-1.79-40.76-1.42-6.53,2.43-13.06,8.33-14.14l.16,0a112.42,112.42,0,0,1,14.55-1.79h.15C171.66,281.11,177,286.08,178.09,292.89Z" style="opacity:0.30000000000000004"></path><g style="opacity:0.4"><path d="M180.82,331.42c0-.17,0-.35,0-.52-9.71,4-25.27,5-36.08,4l-.09.48c2.66.26,5.6.4,8.68.4C162.69,335.78,173.3,334.5,180.82,331.42Z" style="fill:#FC5200"></path><path d="M180.74,326.72c0-.18,0-.34,0-.52-9.47,4-24.62,5.12-35.44,4.26,0,.16,0,.32,0,.48,2.33.19,4.86.3,7.5.3C162.25,331.24,173.12,329.91,180.74,326.72Z" style="fill:#FC5200"></path><path d="M180.61,322c0-.17,0-.34,0-.51-9.33,4-24.24,5.2-35.06,4.44,0,.17,0,.33,0,.5,2.08.15,4.31.23,6.63.23C161.79,326.7,172.89,325.33,180.61,322Z" style="fill:#FC5200"></path><path d="M180.43,317.39l0-.52c-9.26,4-24.08,5.29-34.89,4.6,0,.17,0,.34,0,.5,1.91.13,3.94.2,6,.2C161.31,322.17,172.62,320.76,180.43,317.39Z" style="fill:#FC5200"></path><path d="M180.18,312.76l0-.51c-9.28,4-24.08,5.36-34.88,4.71,0,.16,0,.34,0,.5,1.8.11,3.71.17,5.68.17C160.8,317.63,172.27,316.19,180.18,312.76Z" style="fill:#FC5200"></path><path d="M179.86,308.16c0-.17,0-.34,0-.51-9.33,4.05-24.21,5.43-35,4.78,0,.17,0,.34.05.5,1.75.11,3.6.17,5.52.17C160.26,313.1,171.87,311.63,179.86,308.16Z" style="fill:#FC5200"></path><path d="M179.46,303.59c0-.16,0-.33-.05-.49-9.45,4.06-24.43,5.46-35.15,4.8,0,.17.05.34.07.5,1.74.11,3.59.17,5.52.17C159.69,308.57,171.38,307.08,179.46,303.59Z" style="fill:#FC5200"></path><path d="M179,299.07l-.06-.49c-9.62,4.07-24.76,5.47-35.4,4.78l.09.49c1.78.12,3.69.19,5.68.19C159.08,304,170.81,302.54,179,299.07Z" style="fill:#FC5200"></path><path d="M178.36,294.59c0-.16-.05-.32-.07-.48-9.84,4.06-25.14,5.44-35.66,4.7,0,.16.07.33.1.49,1.87.13,3.88.21,6,.21C158.44,299.51,170.12,298,178.36,294.59Z" style="fill:#FC5200"></path><path d="M177.41,290.26c0-.15-.11-.3-.17-.45-10,3.89-25,5.21-35.22,4.46a4,4,0,0,0,0,.49c1.9.14,4,.22,6.15.22C157.66,295,169.13,293.55,177.41,290.26Z" style="fill:#FC5200"></path><path d="M175.34,286.32l-.33-.41c-9.54,3.24-22.63,4.44-32.14,3.92l-.18.48c1.55.1,3.2.14,4.91.14C156.48,290.45,167.15,289.19,175.34,286.32Z" style="fill:#FC5200"></path><path d="M171.49,282.83c-.21-.12-.42-.25-.64-.36a98.84,98.84,0,0,1-25,2.95l-.5.49,1.68,0A96,96,0,0,0,171.49,282.83Z" style="fill:#FC5200"></path></g><path d="M152.49,270.08c.89,5,1.21,10-1.12,12.83,0,0,5.15,9.55,13.62,11.76,4.16-5,1.4-13.44,1.4-13.44-4.71-1.63-4.64-4.41-4-8.61l-7.44-4.81C153.67,266.86,152.17,268.25,152.49,270.08Z" style="fill:#ffb573"></path><path d="M162.38,272.62l-7.44-4.81c-.94,5.65-.6,8.42,2.35,9.93a7.83,7.83,0,0,0,5.23.5C161.86,276.76,162,274.89,162.38,272.62Z" style="opacity:0.2"></path><path d="M144,262.33c2.38,6.81,3.39,10.93,8.31,13.42,7.41,3.73,16.18-2.09,16.15-9.54,0-6.7-3.93-16.72-12.34-17.39S141.64,255.51,144,262.33Z" style="fill:#ffb573"></path><path d="M148.19,252.52c3,3.35,3.75,11.67-2.23,13.8C140.62,261.52,139.4,252.36,148.19,252.52Z" style="fill:#263238"></path><path d="M163.7,257.38c.29.57.82.88,1.2.69s.43-.8.14-1.37-.82-.88-1.19-.69S163.41,256.81,163.7,257.38Z" style="fill:#263238"></path><path d="M163.74,256.09,165,255S164.28,257.39,163.74,256.09Z" style="fill:#263238"></path><path d="M156.94,259.15c.29.57.82.88,1.19.69s.44-.8.15-1.37-.82-.87-1.19-.69S156.65,258.59,156.94,259.15Z" style="fill:#263238"></path><path d="M157,257.86l1.22-1.07S157.52,259.16,157,257.86Z" style="fill:#263238"></path><path d="M154.44,258.07a.38.38,0,0,0,.26-.29,3,3,0,0,1,1.57-2.2.38.38,0,0,0-.3-.69,3.72,3.72,0,0,0-2,2.76.37.37,0,0,0,.48.42Z" style="fill:#263238"></path><path d="M165,253.61a.41.41,0,0,0,.19-.13.38.38,0,0,0-.08-.53,3.67,3.67,0,0,0-3.34-.66.38.38,0,0,0-.23.48.39.39,0,0,0,.48.23h0a2.93,2.93,0,0,1,2.64.55A.42.42,0,0,0,165,253.61Z" style="fill:#263238"></path><path d="M162.42,258.54a19.54,19.54,0,0,0,4.24,3.26,3.14,3.14,0,0,1-2.2,1.48Z" style="fill:#ed893e"></path><path d="M143.81,269a5.82,5.82,0,0,0,4,1.55c1.85-.08,1.91-2,.68-3.61-1.11-1.42-3.4-3.09-4.91-2.24S142.37,267.71,143.81,269Z" style="fill:#ffb573"></path><path d="M165.67,265s-2.35-.25-8.76.79c1,2.15,2.63,2.71,5.91,2.14S165.67,265,165.67,265Z" style="fill:#263238"></path><path d="M165.37,265a1.58,1.58,0,0,1-.89,1.29,29.2,29.2,0,0,1-5.73.35,1.67,1.67,0,0,1-1.56-.87A45,45,0,0,1,165.37,265Z" style="fill:#fff"></path><path d="M164.3,266.14a17.08,17.08,0,0,0-5.22.26,2.69,2.69,0,0,0-1.15.89c1,.92,2.53,1.08,4.88.68a3.76,3.76,0,0,0,2.34-1.16A4,4,0,0,0,164.3,266.14Z" style="fill:#fff"></path><path d="M149.55,283.3c-7.54,2-8.88,7.38-7.55,13.51.28,1.29.83,2.92,1.07,4.15C143.07,301,157.29,299.14,149.55,283.3Z" style="fill:#ffb573"></path><path d="M168.29,281.52c1.72,4.94,7.05,14.75,9.8,11.37C177.13,287.14,174,282.47,168.29,281.52Z" style="fill:#ffb573"></path><path d="M149.58,292.74c-1.79,1.38-3.53,2.55-5.33,3.75s-3.61,2.32-5.47,3.39a117.24,117.24,0,0,1-11.48,5.91l-.25.11-.1,0a10.16,10.16,0,0,1-4.22.44,17.43,17.43,0,0,1-3.29-.65,32.34,32.34,0,0,1-5.54-2.22A53.45,53.45,0,0,1,109,300.7c-1.58-1-3.08-2.07-4.58-3.28a2.15,2.15,0,0,1,2.19-3.66l.07,0c1.58.66,3.22,1.37,4.85,2s3.25,1.23,4.86,1.74a32.2,32.2,0,0,0,4.69,1.18,10.17,10.17,0,0,0,2,.16,2.45,2.45,0,0,0,1.1-.21l-.35.15c3.55-2,7-4,10.47-6.21,1.72-1.1,3.42-2.2,5.11-3.34s3.39-2.31,5-3.41l.07-.05a4.32,4.32,0,0,1,5.11,7Z" style="fill:#ffb573"></path><path d="M110.77,295.73l-3.54-5.93-4.74,6.1s1.27,3.28,5.72,3.31Z" style="fill:#ffb573"></path><path d="M101.56,288.72l-1.35,1.85a2.49,2.49,0,0,0,.22,3.21l2.06,2.12,4.74-6.1-2.17-1.61A2.51,2.51,0,0,0,101.56,288.72Z" style="fill:#ffb573"></path><path d="M143.93,253.62c3.94,1.45,14,.52,15.49-.22a11.83,11.83,0,0,0-2.62-1.47s5.59.45,4.74-1.87-7.51-3.54-10.5-2.31S144.59,251.75,143.93,253.62Z" style="fill:#263238"></path></g><g id="freepik--character-2--inject-177"><path d="M284.41,262.7l-1.09-.42-1-.41c-.65-.28-1.27-.58-1.89-.87-1.25-.61-2.46-1.24-3.67-1.91a57.52,57.52,0,0,1-6.92-4.58,47.67,47.67,0,0,1-6.27-5.74,37.24,37.24,0,0,1-5.14-7.16l-.2-.37a4.36,4.36,0,0,1-.54-2.49,55.73,55.73,0,0,1,1.18-7.3c.48-2.29,1.05-4.53,1.63-6.75,1.21-4.44,2.53-8.8,4.15-13.12a2.94,2.94,0,0,1,5.69,1.2v0c-.27,4.52-.72,9-1.13,13.47l-.61,6.62c-.09,1.1-.17,2.17-.23,3.23l-.06,1.54c0,.5,0,.93,0,1.4l-.74-2.86a36.07,36.07,0,0,0,9.21,8.95,61.75,61.75,0,0,0,5.79,3.6c1,.56,2,1.1,3,1.59l1.54.73.75.34.66.29.33.15a5.86,5.86,0,0,1-4.47,10.84Z" style="fill:#ff8b7b"></path><path d="M268.29,217.1l4.7-4.31-6.69-5.46s-3.55,3.52-2.33,8.11Z" style="fill:#ff8b7b"></path><path d="M272.75,205.81l-2.29-1a2.5,2.5,0,0,0-3.1.92l-1.06,1.62,6.69,5.46,1.15-4A2.48,2.48,0,0,0,272.75,205.81Z" style="fill:#ff8b7b"></path><path d="M304,253.91l1.78-.16,1.86-.18c1.25-.13,2.49-.28,3.74-.46,2.49-.33,5-.74,7.42-1.19s4.84-1,7.2-1.67a63,63,0,0,0,6.75-2.33l-.45.25a17,17,0,0,0,3.24-2.35c1.18-1,2.4-2.18,3.58-3.39s2.39-2.43,3.59-3.68,2.41-2.55,3.61-3.77l.07-.06a3,3,0,0,1,4.83,3.2c-.72,1.75-1.52,3.37-2.38,5s-1.8,3.23-2.81,4.81a49.3,49.3,0,0,1-3.37,4.66,23.26,23.26,0,0,1-4.79,4.58l-.15.1-.3.15a60,60,0,0,1-8,3.5,80.59,80.59,0,0,1-8.17,2.36c-2.73.65-5.48,1.15-8.23,1.55-1.38.19-2.76.35-4.15.49s-2.73.25-4.29.31a5.86,5.86,0,0,1-.78-11.7Z" style="fill:#ff8b7b"></path><path d="M344.1,238.31l1.4-6.21,8.07,3.08s-1.28,4.83-5.88,6Z" style="fill:#ff8b7b"></path><path d="M351.63,228.48l2.21,1.81a2.49,2.49,0,0,1,.65,3.06l-.92,1.83-8.07-3.08,2.6-3.25A2.5,2.5,0,0,1,351.63,228.48Z" style="fill:#ff8b7b"></path><path d="M286,306a121.26,121.26,0,0,1,17.75,1.05,76.59,76.59,0,0,1,8.8,1.67,33.54,33.54,0,0,1,4.32,1.42,12.82,12.82,0,0,1,2.13,1.12,5,5,0,0,1,1,.9,2.22,2.22,0,0,1-.16,3.25,4.84,4.84,0,0,1-1.12.78,12.17,12.17,0,0,1-2.22.9,33.88,33.88,0,0,1-4.46,1,76.46,76.46,0,0,1-8.92.75,122.4,122.4,0,0,1-17.76-.78c5.92-.08,11.82-.27,17.68-.71,2.92-.26,5.85-.53,8.71-1.05a36,36,0,0,0,4.19-1,10.46,10.46,0,0,0,1.87-.77,3.31,3.31,0,0,0,.69-.48.71.71,0,0,0,.22-.33.8.8,0,0,0-.18-.34,3.32,3.32,0,0,0-.64-.56,11.51,11.51,0,0,0-1.78-1,36.08,36.08,0,0,0-4.07-1.39c-2.79-.81-5.67-1.39-8.56-2C297.72,307.48,291.87,306.68,286,306Z" style="fill:#fff"></path><path d="M278.71,303.41c-2.89,0-5.76-.17-8.63-.29s-5.72-.25-8.56-.25c-1.43,0-2.85,0-4.26.06a26.76,26.76,0,0,0-4.14.47,3.46,3.46,0,0,0-1.59.71c-.11.13-.13.21,0,.46a3,3,0,0,0,.63.66,18.68,18.68,0,0,0,3.72,2,13.07,13.07,0,0,1-4.16-1.38,3.31,3.31,0,0,1-.95-.79,1.6,1.6,0,0,1-.29-.73,1.28,1.28,0,0,1,.2-.82,2.59,2.59,0,0,1,1-.87,6.62,6.62,0,0,1,1.09-.45,31.14,31.14,0,0,1,8.75-.94,78.25,78.25,0,0,1,8.66.61A77.2,77.2,0,0,1,278.71,303.41Z" style="fill:#fff"></path><path d="M300.69,314.14a60.62,60.62,0,0,1-17.54.73,65.27,65.27,0,0,1-8.75-1.39,42.89,42.89,0,0,1-4.32-1.22c-.71-.25-1.43-.51-2.15-.84a11.73,11.73,0,0,1-1.11-.57,4.4,4.4,0,0,1-.59-.4,3,3,0,0,1-.72-.74,1.82,1.82,0,0,1,.05-2.13,2.72,2.72,0,0,1,.88-.74,7.38,7.38,0,0,1,1.27-.53c.79-.24,1.54-.4,2.28-.55,1.49-.28,3-.48,4.42-.63,2.94-.26,5.86-.47,8.78-.51a140,140,0,0,1,17.5.65c-5.81.61-11.6,1.06-17.36,1.61-2.88.31-5.75.56-8.59,1-1.42.19-2.83.39-4.2.67a19.57,19.57,0,0,0-1.94.5,4.18,4.18,0,0,0-.73.31c-.08,0-.11.1,0-.06a1.08,1.08,0,0,0,.18-.6,1,1,0,0,0-.14-.52c-.08-.11,0,0,.05,0a2.3,2.3,0,0,0,.31.22c.24.14.53.29.82.43a20.35,20.35,0,0,0,1.9.77c1.31.48,2.67.86,4,1.25,2.74.76,5.56,1.31,8.38,1.81A107.38,107.38,0,0,0,300.69,314.14Z" style="fill:#fff"></path><path d="M273.46,258.57c-1.87,7.1-4.45,21.93-4.64,50.09,7.68,6,31.72,6.47,41.19,4.52.89-5.78-.53-23.57,6.51-49a7.12,7.12,0,0,0-5.17-8.86c-2-.47-4.19-.93-6.37-1.28a153.18,153.18,0,0,0-17.5-1.92c-2.27,0-4.51.06-6.43.21A8.49,8.49,0,0,0,273.46,258.57Z" style="fill:#ff8b7b"></path><path d="M302.94,240.18c-1.07,5.32-1.45,11.61,1.35,14.65a63.62,63.62,0,0,1-17,6.46c-5-5.31-1.62-8.18-1.62-8.18,5.66-1.74,6.1-5.72,5.34-10.21l9-5.15C301.52,236.74,303.33,238.23,302.94,240.18Z" style="fill:#ff8b7b"></path><path d="M302.94,240.18c.4-2-1.42-3.44-2.94-2.43l-9,5.16a11.66,11.66,0,0,1-.21,6,11.47,11.47,0,0,0,5.4,0,11.82,11.82,0,0,0,6-3.45A43.64,43.64,0,0,1,302.94,240.18Z" style="opacity:0.2"></path><path d="M298.94,225.55c.59,4.35-3.14,6.3-4.48,7-.37-.38.21-1.51.21-1.51s-2.61,3.34-6.1,1.87c-3.56-4.2-3.34-5.74-1.37-8.53a1.35,1.35,0,0,1-1.68.23,3.51,3.51,0,0,0,1.87-2.08c.86-2.84,3.05-3.77,5.22-3.26-1-1.79-.2-1.85-.2-1.85S295,220,297,220.25,298.94,225.55,298.94,225.55Z" style="fill:#263238"></path><path d="M310.68,231.44c-2,7.45-2.81,11.93-7.88,14.94-7.63,4.54-17.43-1-17.94-9-.46-7.16,2.95-18.15,11.88-19.48S312.72,224,310.68,231.44Z" style="fill:#ff8b7b"></path><path d="M307.12,223.71c-3.92,2-3.4,6.16-3.2,7.65.52.09,1.12-1,1.12-1s-1.52,4.6,1.68,6.64c5.48.54,6.67-1.25,7.85-4.46a2,2,0,0,0,.56,1.8,4.57,4.57,0,0,1,.45-2.31c.84-1.56,2-5.17.32-6.66a3.06,3.06,0,0,0,2.64-1.79s-4.61.27-6-1.28S307.12,223.71,307.12,223.71Z" style="fill:#263238"></path><path d="M296.66,229c-.26.62-.81,1-1.22.82s-.53-.83-.26-1.45.81-1,1.22-.82S296.93,228.38,296.66,229Z" style="fill:#263238"></path><path d="M289.31,227.6c-.27.63-.81,1-1.22.83s-.53-.83-.26-1.46.81-1,1.22-.82S289.58,227,289.31,227.6Z" style="fill:#263238"></path><path d="M300,227.47a.4.4,0,0,1-.3-.29,3.15,3.15,0,0,0-1.84-2.23.4.4,0,0,1-.25-.51.4.4,0,0,1,.51-.25,4,4,0,0,1,2.36,2.79.41.41,0,0,1-.29.49Z" style="fill:#263238"></path><path d="M287.43,223.7a.4.4,0,0,1-.17-.69,4,4,0,0,1,3.52-1,.4.4,0,0,1,.28.5.4.4,0,0,1-.49.27h0a3.2,3.2,0,0,0-2.78.79A.4.4,0,0,1,287.43,223.7Z" style="fill:#263238"></path><path d="M290.77,228.76a20.9,20.9,0,0,1-4.29,3.79,3.39,3.39,0,0,0,2.46,1.42Z" style="fill:#ff5652"></path><path d="M310.94,238.94a6.3,6.3,0,0,1-4.17,1.95c-2,.05-2.19-2-1-3.81,1.08-1.6,3.4-3.55,5.07-2.75S312.38,237.46,310.94,238.94Z" style="fill:#ff8b7b"></path><path d="M287.21,236.08s2.87-.34,10.71.33c-1.16,2.05-3.08,3.63-7.1,3.26S287.21,236.08,287.21,236.08Z" style="fill:#263238"></path><path d="M292.88,238.16a8.06,8.06,0,0,0-4.5.65,4.5,4.5,0,0,0,2.44.85,8,8,0,0,0,4.49-.65A4.47,4.47,0,0,0,292.88,238.16Z" style="fill:#ff5652"></path><path d="M287.58,236.05a1.49,1.49,0,0,0,1.1,1.16,46,46,0,0,0,7,.06,2.3,2.3,0,0,0,1.89-.89A72.77,72.77,0,0,0,287.58,236.05Z" style="fill:#fff"></path><path d="M283.05,307.74c0,.47.21.86.55.88s.64-.34.68-.8-.21-.86-.55-.88S283.08,307.28,283.05,307.74Z" style="opacity:0.2"></path><path d="M276,269.41c-.08.46.13.87.47.92s.67-.28.75-.74-.14-.87-.48-.92S276.08,269,276,269.41Z" style="opacity:0.2"></path><path d="M297.94,271.61a.74.74,0,0,0,.47.92c.34.05.68-.28.75-.74a.74.74,0,0,0-.47-.92C298.35,270.82,298,271.15,297.94,271.61Z" style="opacity:0.2"></path><path d="M308.44,225.2c-5.69,0-13.44-3.48-13.44-3.48a5.87,5.87,0,0,1,3.41-1c-3.26-1.14-8.25.65-10.71-.41,3.22-1.26,1.74-3.75,7.15-3.91-2.9-1.81-.21-3.58-.21-3.58s.31,3.22,6.06,3.59,9.42-.63,11.8,1.88C315.3,221.23,313.6,225.13,308.44,225.2Z" style="fill:#263238"></path><path d="M315.73,219.26s-1.77,4.26-5.2,3.21l2.54,1.29C316.85,221.57,315.73,219.26,315.73,219.26Z" style="fill:#263238"></path></g><g id="freepik--character-3--inject-177"><path d="M376.24,276c0,5.71.93,12.26,4.45,14.8A66.91,66.91,0,0,1,364.56,301c-6.25-4.42-3.36-8.08-3.36-8.08,5.46-3,5.08-7.15,3.37-11.62l8.14-7.16C374.07,272.79,376.24,274,376.24,276Z" style="fill:#b55b52"></path><path d="M357.68,265.93c-.14.7-.63,1.2-1.09,1.1s-.71-.74-.57-1.44.63-1.19,1.09-1.1S357.82,265.23,357.68,265.93Z" style="fill:#263238"></path><path d="M357.3,259.72a.48.48,0,0,1,0-.26.43.43,0,0,1,.56-.21,4.13,4.13,0,0,1,2.45,2.95.42.42,0,0,1-.35.48.44.44,0,0,1-.48-.35h0a3.29,3.29,0,0,0-2-2.31A.45.45,0,0,1,357.3,259.72Z" style="fill:#263238"></path><path d="M357.43,267.32a22.1,22.1,0,0,1-3.62,4.79,3.53,3.53,0,0,0,2.82.95Z" style="fill:#a02724"></path><path d="M382.39,265.43c-.55,8.1-.41,12.86-5,17-6.91,6.25-18.15,2.56-20.33-5.52-2-7.27-.74-19.28,8.17-22.51S382.94,257.34,382.39,265.43Z" style="fill:#b55b52"></path><path d="M361.2,269.22c-1.91-2-1.38-6-.26-7.51-2.29-1.51-2.91-3.79-2.12-6.56s3.13-5.59,8-5.7a12.21,12.21,0,0,1,8.05,2.93,11.42,11.42,0,0,1,9.8.43c5.17,2.71,6.72,11.08,2.19,13.93,2.23,6.13-5.44,15.33-11,16.92S359.29,281.8,361.2,269.22Z" style="fill:#263238"></path><path d="M363.67,270a6.51,6.51,0,0,1-2.64,4c-1.73,1.14-3.07-.6-3-2.84.08-2,1.07-5.05,3-5.27S364.14,267.88,363.67,270Z" style="fill:#b55b52"></path><path d="M348.79,301.08c-.45,7.69,0,23.49,5.64,52.5l43.32-3.92c-.28-6.13-5.45-24.13-3.5-51.79a7.47,7.47,0,0,0-7.17-8c-2.13-.08-4.49-.1-6.81,0a157.31,157.31,0,0,0-18.41,1.67c-2.35.43-4.63,1-6.57,1.55A8.88,8.88,0,0,0,348.79,301.08Z" style="fill:#b55b52"></path><path d="M353.8,307.54c-2,2.8-3.56,5.24-4.83,7.35.27,4.13.74,9,1.5,14.79C353.43,323.73,355.61,314.55,353.8,307.54Z" style="opacity:0.2"></path><path d="M356.3,353.41s-2.88,30.65,1.59,45c7.39,23.68,14.29,52.85,14.29,52.85l7-2.21s1.25-29.35-4.29-52.48c-1.68-27.57,7.52-45.47,7.52-45.47Z" style="fill:#b55b52"></path><path d="M382.24,452.22c-.94-2.38-3.36-6.6-3.19-12.83,0,0-9.59,1.93-9,4.38,1,4.44-1.63,12.3-8.31,12.78-3,.22-1.33,3.1.86,3.1,6.61,0,10.1-1.9,13.14-2.44,2.59-.46,3.61-.22,5.71-.57C383.16,456.35,382.9,453.9,382.24,452.22Z" style="fill:#b55b52"></path><path d="M374,352.85s6.87,37.48,11.24,46.28C392,412.68,426.88,427,426.88,427l1.57-7.13s-17-15.61-27.34-26.73a246.82,246.82,0,0,0-5.57-43.58Z" style="fill:#b55b52"></path><path d="M434.14,419.71A27.07,27.07,0,0,1,421.68,414s-4.48,9.06-2.19,10.09c7,3.14,6.86,10.39,7.77,17,.41,2.95,5.46,0,5.32-2.19-.43-6.6-.44-6.85,1.06-9.55,1.28-2.31,2.11-2.95,3.16-4.79C437.68,423,437.21,420.36,434.14,419.71Z" style="fill:#b55b52"></path><path d="M391.33,291.55c2.08,1.44,3.91,2.85,5.79,4.38s3.68,3.11,5.45,4.79a65.53,65.53,0,0,1,5.18,5.43c.83,1,1.65,2,2.45,3.17a24.6,24.6,0,0,1,2.24,3.95,14.1,14.1,0,0,1,.89,2.64,11.71,11.71,0,0,1,.23,1.36,9.62,9.62,0,0,1,.11,1.28,20,20,0,0,1-.35,4.56,35.33,35.33,0,0,1-2.38,7.53,59,59,0,0,1-7.5,12.58,3.08,3.08,0,0,1-5.33-2.92l.05-.14A118.1,118.1,0,0,0,402,327.64a32.9,32.9,0,0,0,.91-5.85,11.7,11.7,0,0,0-.14-2.33,2.35,2.35,0,0,0-.1-.42,2.53,2.53,0,0,0-.11-.33,4,4,0,0,0-.32-.59,15.39,15.39,0,0,0-1.38-1.9c-.57-.7-1.23-1.43-1.94-2.15-1.42-1.44-3-2.89-4.62-4.29s-3.31-2.81-5-4.18-3.5-2.76-5.15-4l-.09-.07a6.16,6.16,0,0,1,7.27-9.95Z" style="fill:#b55b52"></path><path d="M400.56,336.36l-4.64,4.82,7.37,5.29s3.49-3.92,1.9-8.66Z" style="fill:#b55b52"></path><path d="M394.07,348l3.66,2.26a2.24,2.24,0,0,0,2.92-.51l2.64-3.32-7.37-5.29-2.52,3.7A2.24,2.24,0,0,0,394.07,348Z" style="fill:#b55b52"></path><path d="M360.7,302.69l-.14.61-.11.49-.24.92c-.17.6-.35,1.17-.54,1.75-.37,1.14-.8,2.24-1.25,3.32a52.69,52.69,0,0,1-3.13,6.24,55.84,55.84,0,0,1-3.84,5.75c-.67.93-1.41,1.81-2.14,2.69s-1.49,1.67-2.33,2.59a18.88,18.88,0,0,1-7.24,4.58,37.07,37.07,0,0,1-6.91,1.79,53.62,53.62,0,0,1-6.72.66,51.62,51.62,0,0,1-6.68-.15,3.09,3.09,0,0,1-.49-6.06l.15,0a116,116,0,0,0,11.44-3.38,36,36,0,0,0,5-2.23,9.27,9.27,0,0,0,3.07-2.46c.5-.71,1.12-1.53,1.64-2.3s1.08-1.57,1.56-2.39l.76-1.21.7-1.24c.49-.81.9-1.66,1.35-2.49.84-1.68,1.64-3.38,2.33-5.09.36-.85.66-1.72,1-2.56.15-.42.29-.85.42-1.25l.31-1,.19-.63a6.15,6.15,0,0,1,11.89,3.11Z" style="fill:#b55b52"></path><path d="M323.86,328.43,318,325.24l-3.14,8.5s4.7,2.33,8.85-.45Z" style="fill:#b55b52"></path><path d="M310.88,327.79l-.09,2.62a2.84,2.84,0,0,0,2.13,2.85l1.92.48,3.14-8.5-4.15-.18A2.84,2.84,0,0,0,310.88,327.79Z" style="fill:#b55b52"></path><path d="M372.53,347.56l1.74,4.06s2.63,26.25,5.51,35.48c19.18,1.46,21.66-4.73,21.66-4.73l-2.13-15.25s2.85-11.68-1-21.81C381.48,346.59,372.53,347.56,372.53,347.56Z" style="fill:#263238"></path><path d="M378.73,368.18a5.63,5.63,0,0,0-2.66-1.35c.81,6.11,1.85,12.77,2.95,17.43C381.23,379.94,382.8,371.72,378.73,368.18Z" style="opacity:0.2"></path><path d="M352.78,349.66l1.07,3.92s-2.34,23.66,0,33c12.18,4.87,21.93.58,21.93.58,1.28-3.62,1.05-13.83,3.68-19.32,0,0,5.51-10.6,2.13-21.07C364.75,348.09,352.78,349.66,352.78,349.66Z" style="fill:#263238"></path></g><g id="freepik--beach-ball--inject-177"><path d="M251.68,164.74l-1.28-.09a54.64,54.64,0,0,0-.56-12.71l1.26-.2A56.56,56.56,0,0,1,251.68,164.74Z" style="fill:#FC5200"></path><path d="M247.84,143.67a54.08,54.08,0,0,0-13.34-21.74l.91-.9a55.49,55.49,0,0,1,13.65,22.24Z" style="fill:#FC5200"></path><circle cx="195.71" cy="160.73" r="51.67" style="fill:#FC5200"></circle><ellipse cx="195.71" cy="160.73" rx="51.67" ry="43.84" transform="translate(-56.33 185.46) rotate(-45)" style="fill:#fff;opacity:0.9"></ellipse><ellipse cx="195.71" cy="160.73" rx="51.67" ry="17.86" transform="translate(-56.33 185.46) rotate(-45)" style="fill:#FC5200"></ellipse></g></svg>