<svg xmlns="http://www.w3.org/2000/svg" xmlns:xlink="http://www.w3.org/1999/xlink" viewBox="0 0 500 500"><defs><clipPath id="freepik--clip-path--inject-242"><path d="M417.74,243H113.56c-29.78,35.94-64.73,91.43-19.72,140,45.48,49,101.31,17.2,148.86,14.67,40-2.13,80.37,13.52,120.22,7.89,37.85-5.35,57.53-36.48,62.68-76a183.58,183.58,0,0,0,.74-38.44A259.16,259.16,0,0,0,417.74,243Z" style="fill:none"></path></clipPath><clipPath id="freepik--clip-path-2--inject-242"><path d="M235,365H172a3.1,3.1,0,1,1,0-6.2h63a18.14,18.14,0,0,0,18.12-18.12V269.72a3.1,3.1,0,1,1,6.2,0v70.95A24.35,24.35,0,0,1,235,365Z" style="fill:#FC5200;stroke:#263238;stroke-linecap:round;stroke-linejoin:round"></path></clipPath><clipPath id="freepik--clip-path-3--inject-242"><path d="M272.57,236.87a160,160,0,0,0-17.43-1.24A46.23,46.23,0,0,1,257.43,256c6.25-1.52,11.32-3,11.32-3s7.16,17.16,14,21.45,39.06,15.94,42.1,18.95c0,0,4.45-1.27,3.6-4.25S289.79,258.26,285.72,252,277.46,237.92,272.57,236.87Z" style="fill:#fff;stroke:#263238;stroke-linecap:round;stroke-linejoin:round"></path></clipPath><clipPath id="freepik--clip-path-4--inject-242"><path d="M276.29,165.48s-2.17,5-4.71,7.3-9.66,4.46-10.61,7.05,3.48,11.17,6.15,11.46,11-11.46,11-11.46S278.75,168.85,276.29,165.48Z" style="fill:#fff;stroke:#263238;stroke-linecap:round;stroke-linejoin:round"></path></clipPath><clipPath id="freepik--clip-path-5--inject-242"><path d="M277.58,177.45c.2,2.39.59,4.85,3.41,6.27,7.3,3.68,10.92-5.13,12.18-10,1.13.1,3.31-.44,3.35-.94.05-.72-.7-1.39-1.51-2.73a6.07,6.07,0,0,1-.66-3.17c0-2,2.43-3,2.55-5.11.21-3.57-1.31-8.44-4.55-10.36a15.26,15.26,0,0,0-12.27-1.2c-4.1,1.42-6.41,5.73-6.78,9.86s2.11,6.87,3.39,10.41" style="fill:#fff;stroke:#263238;stroke-linecap:round;stroke-linejoin:round"></path></clipPath><clipPath id="freepik--clip-path-6--inject-242"><path d="M215.79,233.3s18.3-7.91,31.86-9.76c18.94-2.58,23.2,3.34,24.06,8.33s-4.2,8.93-12.07,13.13-34.12,18.9-43,10" style="fill:#fff;stroke:#263238;stroke-linecap:round;stroke-linejoin:round"></path></clipPath><clipPath id="freepik--clip-path-7--inject-242"><path d="M261.06,232.3s-12.45-1.53-23.47,4.77-33.31,20.39-38,22.49-10.86,2.63-18.37,8.74c-5,4.06-5.05,8.83,2.81,7.18,5.93-1.25,12.25-8.36,20.13-10.46s18.22-7.71,53.93-16.4c16.65-4.06,14.42-13.55,13.37-16.7" style="fill:#fff;stroke:#263238;stroke-linecap:round;stroke-linejoin:round"></path></clipPath><clipPath id="freepik--clip-path-8--inject-242"><path d="M334.12,184.88c-1.4-1.78-5.66-.76-5.66-.76s-4.48-.94-4.73.3-1.64,6.22-1.64,6.22-1.76.77-4.6,1.75c-.47.17-1,.34-1.51.51a73.89,73.89,0,0,1-18.63,3.77,114.81,114.81,0,0,0-21.89,3.22l0-.11c-.06-.16-.19-.55-.39-1.14l0-.08-.28-.78-.06-.17c-.09-.26-.19-.55-.3-.85,0-.11-.07-.21-.12-.33-.1-.3-.22-.62-.34-.94l-.14-.39-.38-1c-.06-.15-.11-.3-.17-.46l-.39-1c-.06-.14-.11-.28-.17-.43-.38-1-.8-2-1.22-3.11,0-.07,0-.14,0-.22,0-4.75-3.72-9.31-8.13-10.77-7.41-2.46-18.44,1.92-18.44,10.77,0,6.24,6,11.3,13.28,11.3h0c1.36,2.1,2.67,4,3.67,5.57l.12.19.5.77,0,0c.15.25.29.47.41.68l.09.15c.12.2.23.39.32.56.38.74.92,1.69,1.52,2.68l.47.76c.32.5.64,1,1,1.51l.49.73c.33.47.66.92,1,1.33.16.2.32.4.47.57a6.71,6.71,0,0,0,1.19,1.2.86.86,0,0,0,.56.22,107.08,107.08,0,0,0,16.5-3.93c2-.64,4.09-1.37,6.23-2.21q1.6-.63,3.42-1.44l2.47-1.14c1.26-.6,2.57-1.24,3.89-1.9l2.65-1.36c2.21-1.15,4.42-2.33,6.51-3.47,2.51-1.38,4.85-2.7,6.83-3.82l1-.55c3.09-1.77,5.08-3,5.08-3s4.44.54,6.94-1.82a15.53,15.53,0,0,0,3.14-3.66A4.07,4.07,0,0,0,334.12,184.88Z" style="fill:#fff;stroke:#263238;stroke-linecap:round;stroke-linejoin:round"></path></clipPath></defs><g id="freepik--background-simple--inject-242"><path d="M425.6,329.52a183.58,183.58,0,0,0,.74-38.44c-9-112-98.17-230.55-198.61-203.07C193,97.5,167.31,123.43,152,160.68,140.76,188,132.79,220,114.51,241.85c-30,35.9-66.16,92.06-20.67,141.1s101.31,17.2,148.86,14.67c40-2.13,80.37,13.52,120.22,7.89C400.77,400.16,420.45,369,425.6,329.52Z" style="fill:#FC5200"></path><path d="M425.6,329.52a183.58,183.58,0,0,0,.74-38.44c-9-112-98.17-230.55-198.61-203.07C193,97.5,167.31,123.43,152,160.68,140.76,188,132.79,220,114.51,241.85c-30,35.9-66.16,92.06-20.67,141.1s101.31,17.2,148.86,14.67c40-2.13,80.37,13.52,120.22,7.89C400.77,400.16,420.45,369,425.6,329.52Z" style="fill:#fff;opacity:0.8"></path></g><g id="freepik--Clouds--inject-242"><path d="M266.44,146.51c-4.46-2.43-6.49-.41-8.11-2.43s4.46-7.3-7.7-12.57c0,0-.81-11.35-17.43-11.76S221,131.1,216.57,133.94s-5.67-1.62-10.13,1.22-2.43,8.51-6.08,9.32-8.52-3.65-13-.81-4.45,5.27-6.48,5.27-6.08-1.62-8.52,0-5.27,3.65-5.27,3.65H269.68S270.9,148.94,266.44,146.51Z" style="fill:#FC5200"></path><path d="M266.44,146.51c-4.46-2.43-6.49-.41-8.11-2.43s4.46-7.3-7.7-12.57c0,0-.81-11.35-17.43-11.76S221,131.1,216.57,133.94s-5.67-1.62-10.13,1.22-2.43,8.51-6.08,9.32-8.52-3.65-13-.81-4.45,5.27-6.48,5.27-6.08-1.62-8.52,0-5.27,3.65-5.27,3.65H269.68S270.9,148.94,266.44,146.51Z" style="fill:#FC5200;opacity:0.5"></path><path d="M376.85,275.44c-12.74-8.62-18.53-1.43-23.17-8.62s12.75-25.87-22-44.55c0,0-2.32-40.24-49.82-41.68s-34.76,40.24-47.5,50.3-16.22-5.75-29,4.31-6.95,30.18-17.38,33.06-24.33-12.94-37.07-2.88-12.75,18.69-18.54,18.69-17.38-5.75-24.33,0S93,297,93,297H386.12S389.6,284.07,376.85,275.44Z" style="fill:#FC5200"></path><path d="M376.85,275.44c-12.74-8.62-18.53-1.43-23.17-8.62s12.75-25.87-22-44.55c0,0-2.32-40.24-49.82-41.68s-34.76,40.24-47.5,50.3-16.22-5.75-29,4.31-6.95,30.18-17.38,33.06-24.33-12.94-37.07-2.88-12.75,18.69-18.54,18.69-17.38-5.75-24.33,0S93,297,93,297H386.12S389.6,284.07,376.85,275.44Z" style="fill:#FC5200;opacity:0.5"></path><path d="M298,127.57c-1.93-1-2.81-.17-3.51-1s1.93-3.15-3.33-5.43c0,0-.35-4.91-7.54-5.09s-5.26,4.91-7.19,6.14-2.45-.7-4.38.53-1.05,3.68-2.63,4-3.68-1.58-5.61-.35-1.92,2.28-2.8,2.28-2.63-.71-3.68,0-2.28,1.57-2.28,1.57H299.4A2.27,2.27,0,0,0,298,127.57Z" style="fill:#FC5200"></path><path d="M298,127.57c-1.93-1-2.81-.17-3.51-1s1.93-3.15-3.33-5.43c0,0-.35-4.91-7.54-5.09s-5.26,4.91-7.19,6.14-2.45-.7-4.38.53-1.05,3.68-2.63,4-3.68-1.58-5.61-.35-1.92,2.28-2.8,2.28-2.63-.71-3.68,0-2.28,1.57-2.28,1.57H299.4A2.27,2.27,0,0,0,298,127.57Z" style="fill:#FC5200;opacity:0.5"></path><g style="opacity:0.6"><path d="M266.44,146.51c-4.46-2.43-6.49-.41-8.11-2.43s4.46-7.3-7.7-12.57c0,0-.81-11.35-17.43-11.76S221,131.1,216.57,133.94s-5.67-1.62-10.13,1.22-2.43,8.51-6.08,9.32-8.52-3.65-13-.81-4.45,5.27-6.48,5.27-6.08-1.62-8.52,0-5.27,3.65-5.27,3.65H269.68S270.9,148.94,266.44,146.51Z" style="fill:#fff"></path><path d="M266.44,146.51c-4.46-2.43-6.49-.41-8.11-2.43s4.46-7.3-7.7-12.57c0,0-.81-11.35-17.43-11.76S221,131.1,216.57,133.94s-5.67-1.62-10.13,1.22-2.43,8.51-6.08,9.32-8.52-3.65-13-.81-4.45,5.27-6.48,5.27-6.08-1.62-8.52,0-5.27,3.65-5.27,3.65H269.68S270.9,148.94,266.44,146.51Z" style="fill:#fff;opacity:0.5"></path></g><g style="opacity:0.6"><path d="M376.85,275.44c-12.74-8.62-18.53-1.43-23.17-8.62s12.75-25.87-22-44.55c0,0-2.32-40.24-49.82-41.68s-34.76,40.24-47.5,50.3-16.22-5.75-29,4.31-6.95,30.18-17.38,33.06-24.33-12.94-37.07-2.88-12.75,18.69-18.54,18.69-17.38-5.75-24.33,0S93,297,93,297H386.12S389.6,284.07,376.85,275.44Z" style="fill:#fff"></path><path d="M376.85,275.44c-12.74-8.62-18.53-1.43-23.17-8.62s12.75-25.87-22-44.55c0,0-2.32-40.24-49.82-41.68s-34.76,40.24-47.5,50.3-16.22-5.75-29,4.31-6.95,30.18-17.38,33.06-24.33-12.94-37.07-2.88-12.75,18.69-18.54,18.69-17.38-5.75-24.33,0S93,297,93,297H386.12S389.6,284.07,376.85,275.44Z" style="fill:#fff;opacity:0.5"></path></g><g style="opacity:0.6"><path d="M298,127.57c-1.93-1-2.81-.17-3.51-1s1.93-3.15-3.33-5.43c0,0-.35-4.91-7.54-5.09s-5.26,4.91-7.19,6.14-2.45-.7-4.38.53-1.05,3.68-2.63,4-3.68-1.58-5.61-.35-1.92,2.28-2.8,2.28-2.63-.71-3.68,0-2.28,1.57-2.28,1.57H299.4A2.27,2.27,0,0,0,298,127.57Z" style="fill:#fff"></path><path d="M298,127.57c-1.93-1-2.81-.17-3.51-1s1.93-3.15-3.33-5.43c0,0-.35-4.91-7.54-5.09s-5.26,4.91-7.19,6.14-2.45-.7-4.38.53-1.05,3.68-2.63,4-3.68-1.58-5.61-.35-1.92,2.28-2.8,2.28-2.63-.71-3.68,0-2.28,1.57-2.28,1.57H299.4A2.27,2.27,0,0,0,298,127.57Z" style="fill:#fff;opacity:0.5"></path></g></g><g id="freepik--Floor--inject-242"><g style="clip-path:url(#freepik--clip-path--inject-242)"><path d="M441.85,291.72H374.43V280.31h67.42V266.93H62.07v13.38h60v11.41h-60V314H441.85Zm-239,0H132V280.31h70.9Zm80.82,0H212.8V280.31h70.9Zm80.81,0h-70.9V280.31h70.9Z" style="fill:#FC5200"></path><path d="M441.85,291.72H374.43V280.31h67.42V266.93H62.07v13.38h60v11.41h-60V314H441.85Zm-239,0H132V280.31h70.9Zm80.82,0H212.8V280.31h70.9Zm80.81,0h-70.9V280.31h70.9Z" style="fill:#fff;opacity:0.3"></path><rect x="66.45" y="296.63" width="378.39" height="1.66" style="opacity:0.1"></rect><rect x="66.45" y="301.19" width="378.39" height="1.66" style="opacity:0.1"></rect><rect x="66.45" y="305.74" width="378.39" height="1.66" style="opacity:0.1"></rect><rect x="62.07" y="310.56" width="379.78" height="15.37" style="fill:#FC5200"></rect><rect x="58" y="322" width="383" height="90" style="fill:#263238"></rect><rect x="65" y="327.67" width="365.33" height="2" style="fill:#fff"></rect><rect x="63" y="345" width="367.33" height="4.67" style="fill:#fff"></rect><rect x="64" y="382" width="360" height="6" style="fill:#fff"></rect></g></g><g id="freepik--Character--inject-242"><path d="M262,177.59c-5.91-6.29-12.21-1.71-12.21-1.71-8.42-3.56-22.68-4.76-31.9-3.23-7.38,1.23-11.48,7-16.52,12.18-7.77,8-20,25.74-20,25.74s-3.94,1.24-5.09,4.13a13.68,13.68,0,0,0-1.18,4.19,3.72,3.72,0,0,0,1.95,3.05c1.89.94,5.05-1.52,5.05-1.52s4.13-.93,3.85-2-1.1-5.74-1.1-5.74,8.29-9.18,18.32-14.33a104.86,104.86,0,0,0,17.06-10.93l.07.07s8.54,4.45,15.41,5a98.83,98.83,0,0,0,11.25.38s3.63,3.06,10.11,2.86S267.89,183.89,262,177.59Z" style="fill:#fff;stroke:#263238;stroke-linecap:round;stroke-linejoin:round"></path><path d="M262,177.59c-5.91-6.29-12.21-1.71-12.21-1.71-8.42-3.56-22.68-4.76-31.9-3.23-7.38,1.23-11.48,7-16.52,12.18-7.77,8-20,25.74-20,25.74s-3.94,1.24-5.09,4.13a13.68,13.68,0,0,0-1.18,4.19,3.72,3.72,0,0,0,1.95,3.05c1.89.94,5.05-1.52,5.05-1.52s4.13-.93,3.85-2-1.1-5.74-1.1-5.74,8.29-9.18,18.32-14.33a104.86,104.86,0,0,0,17.06-10.93l.07.07s8.54,4.45,15.41,5a98.83,98.83,0,0,0,11.25.38s3.63,3.06,10.11,2.86S267.89,183.89,262,177.59Z" style="fill:#263238;opacity:0.2"></path><path d="M203.12,198.31a104.86,104.86,0,0,0,17.06-10.93l.07.07s8.54,4.45,15.41,5a98.83,98.83,0,0,0,11.25.38s3.63,3.06,10.11,2.86c2.66-.07,5-2.07,6.35-4.84l-14.72-12.46a133.28,133.28,0,0,1-14.89-.3c-10.64-.61-14-3.34-16.11-1.82S198.2,191.18,194,194.82a29.26,29.26,0,0,1-2.53,1.9c-5.41,7.07-10.1,13.85-10.1,13.85s-3.94,1.24-5.09,4.13a13.68,13.68,0,0,0-1.18,4.19,3.72,3.72,0,0,0,1.95,3.05c1.89.94,5.05-1.52,5.05-1.52s4.13-.93,3.85-2-1.1-5.74-1.1-5.74S193.09,203.46,203.12,198.31Z" style="fill:#263238;opacity:0.2"></path><path d="M182.05,220.42l-4.57-2.9s-.67-1.47,4.52-1" style="fill:none;stroke:#263238;stroke-linecap:round;stroke-linejoin:round"></path><path d="M224.89,260.13A154.53,154.53,0,0,0,242.05,259c10.15-1.17,26.7-6,26.7-6s7.16,17.16,14,21.45,39.06,15.94,42.1,18.95c0,0,4.45-1.27,3.6-4.25S289.79,258.26,285.72,252s-8.26-14-13.15-15.09c-3.32-.72-28.58-2.42-37.72-.36a129,129,0,0,1-15.59,2.63" style="fill:#263238;stroke:#263238;stroke-linecap:round;stroke-linejoin:round"></path><path d="M272.57,236.87a160,160,0,0,0-17.43-1.24A46.23,46.23,0,0,1,257.43,256c6.25-1.52,11.32-3,11.32-3s7.16,17.16,14,21.45,39.06,15.94,42.1,18.95c0,0,4.45-1.27,3.6-4.25S289.79,258.26,285.72,252,277.46,237.92,272.57,236.87Z" style="fill:#fff"></path><g style="clip-path:url(#freepik--clip-path-3--inject-242)"><path d="M272.57,236.87a160,160,0,0,0-17.43-1.24A46.23,46.23,0,0,1,257.43,256c6.25-1.52,11.32-3,11.32-3s7.16,17.16,14,21.45,39.06,15.94,42.1,18.95c0,0,4.45-1.27,3.6-4.25S289.79,258.26,285.72,252,277.46,237.92,272.57,236.87Z" style="fill:#263238;opacity:0.2"></path><path d="M303.35,277.49c-15.49-9.42-27.35-31.31-30.08-31.91-.94-.21-7.45,1.63-15.58,4.13a50.5,50.5,0,0,1-.26,6.31c6.25-1.52,11.32-3,11.32-3s7.16,17.16,14,21.45,39.06,15.94,42.1,18.95a7.06,7.06,0,0,0,3.1-1.9C321.25,288.17,312.69,283.16,303.35,277.49Z" style="fill:#263238;opacity:0.2"></path></g><path d="M272.57,236.87a160,160,0,0,0-17.43-1.24A46.23,46.23,0,0,1,257.43,256c6.25-1.52,11.32-3,11.32-3s7.16,17.16,14,21.45,39.06,15.94,42.1,18.95c0,0,4.45-1.27,3.6-4.25S289.79,258.26,285.72,252,277.46,237.92,272.57,236.87Z" style="fill:none;stroke:#263238;stroke-linecap:round;stroke-linejoin:round"></path><path d="M276.29,165.48s-2.17,5-4.71,7.3-9.66,4.46-10.61,7.05,3.48,11.17,6.15,11.46,11-11.46,11-11.46S278.75,168.85,276.29,165.48Z" style="fill:#fff"></path><g style="clip-path:url(#freepik--clip-path-4--inject-242)"><path d="M276.29,165.48s-2.17,5-4.71,7.3-9.66,4.46-10.61,7.05,3.48,11.17,6.15,11.46,11-11.46,11-11.46S278.75,168.85,276.29,165.48Z" style="fill:#263238;opacity:0.2"></path><path d="M276.29,165.48s-2.17,5-4.71,7.3-9.66,4.46-10.61,7.05,3.48,11.17,6.15,11.46,11-11.46,11-11.46S278.75,168.85,276.29,165.48Z" style="fill:#263238;opacity:0.2"></path></g><path d="M276.29,165.48s-2.17,5-4.71,7.3-9.66,4.46-10.61,7.05,3.48,11.17,6.15,11.46,11-11.46,11-11.46S278.75,168.85,276.29,165.48Z" style="fill:none;stroke:#263238;stroke-linecap:round;stroke-linejoin:round"></path><path d="M277.58,177.45c.2,2.39.59,4.85,3.41,6.27,7.3,3.68,10.92-5.13,12.18-10,1.13.1,3.31-.44,3.35-.94.05-.72-.7-1.39-1.51-2.73a6.07,6.07,0,0,1-.66-3.17c0-2,2.43-3,2.55-5.11.21-3.57-1.31-8.44-4.55-10.36a15.26,15.26,0,0,0-12.27-1.2c-4.1,1.42-6.41,5.73-6.78,9.86s2.11,6.87,3.39,10.41" style="fill:#fff"></path><g style="clip-path:url(#freepik--clip-path-5--inject-242)"><path d="M277.15,177.49c.2,2.39,1,4.81,3.84,6.23,7.3,3.68,10.92-5.13,12.18-10,1.13.1,3.31-.44,3.35-.94.05-.72-.7-1.39-1.51-2.73a6.07,6.07,0,0,1-.66-3.17c0-2,2.43-3,2.55-5.11.21-3.57-1.31-8.44-4.55-10.36a15.26,15.26,0,0,0-12.27-1.2c-4.1,1.42-6.41,5.73-6.78,9.86s2.11,6.87,3.39,10.41" style="fill:#263238;opacity:0.2"></path><path d="M292.17,166.9c-.22.64-.73,1-1.13.9s-.54-.78-.32-1.41.74-1,1.14-.89S292.4,166.27,292.17,166.9Z" style="fill:#263238"></path><path d="M287.78,174.52a3.53,3.53,0,0,1,3,1.18" style="fill:none;stroke:#263238;stroke-linecap:round;stroke-linejoin:round"></path><path d="M290.26,163.2s2.17-1.22,3.35,1.93" style="fill:none;stroke:#263238;stroke-linecap:round;stroke-linejoin:round"></path><path d="M277.15,177.49c.2,2.39,1,4.81,3.84,6.23a6.23,6.23,0,0,0,8.14-1.55c-4.24,1.66-7.69-.16-7.69-6.08,0-6.26,4.33-12.51,4.33-19,0-4.25-1.94-6.43-3.3-7.44a14.6,14.6,0,0,0-2.39.57c-4.1,1.42-6.41,5.73-6.78,9.86s2.11,6.87,3.39,10.41Z" style="fill:#263238;opacity:0.2"></path></g><path d="M277.58,177.45c.2,2.39.59,4.85,3.41,6.27,7.3,3.68,10.92-5.13,12.18-10,1.13.1,3.31-.44,3.35-.94.05-.72-.7-1.39-1.51-2.73a6.07,6.07,0,0,1-.66-3.17c0-2,2.43-3,2.55-5.11.21-3.57-1.31-8.44-4.55-10.36a15.26,15.26,0,0,0-12.27-1.2c-4.1,1.42-6.41,5.73-6.78,9.86s2.11,6.87,3.39,10.41" style="fill:none;stroke:#263238;stroke-linecap:round;stroke-linejoin:round"></path><path d="M266.27,175.55s4.73,8.89,6.41,15.67-6.18,15.93-10.94,22.35-11,12.07-14.27,16.37c-5.49,7.26-4.52,17.47-9.68,24.83-9.58,13.65-28.87.93-28.19-13.07.39-8.08,7.72-13.67,10.15-21.07,2.64-8,21.76-38.5,28.66-43.67S262.1,173.08,266.27,175.55Z" style="fill:#263238;stroke:#263238;stroke-linecap:round;stroke-linejoin:round"></path><path d="M272.68,191.22c-1.68-6.78-6.41-15.67-6.41-15.67-4.17-2.47-12.95-4.85-19.85.32s-19.33,23.8-26.67,44.76a37.7,37.7,0,0,1-4.59,8.41c7.73.21,15.6,3.36,28,10.69a27.74,27.74,0,0,1,4.3-9.79c3.25-4.3,9.51-9.95,14.27-16.37S274.36,198,272.68,191.22Z" style="fill:#FC5200;stroke:#263238;stroke-linecap:round;stroke-linejoin:round"></path><path d="M257.21,202.38s-11.11,3.7-20.57,2.47" style="fill:none;stroke:#263238;stroke-linecap:round;stroke-linejoin:round"></path><path d="M254.74,204.85a99.16,99.16,0,0,1-21.39,5.76" style="fill:none;stroke:#263238;stroke-linecap:round;stroke-linejoin:round"></path><path d="M244.5,212.67l-8.86,16.76,9.74,4a20.24,20.24,0,0,1,2.09-3.47c2.15-2.85,4.57-5.31,8.62-9.68Z" style="fill:#fff;stroke:#263238;stroke-linecap:round;stroke-linejoin:round"></path><path d="M323.68,292.17c-.39.32-.06,1,.33,1.32,1.17.94,4.16,3.44,5.91,3.28,2.39-.21,1.73-4.43,8.4-12,2.48-2.8.05-8.78-1.41-7.6-3.44,2.76-6.41,5.44-7.24,6.69-.65,1-3.3,1.37-4.28,2.11a5.41,5.41,0,0,0-.72,2C324.65,288.79,325.92,290.39,323.68,292.17Z" style="fill:#FC5200;stroke:#263238;stroke-linecap:round;stroke-linejoin:round"></path><path d="M280.12,166.91s-1-5-3.47-4.44-1.74,6,.2,8,2.75.71,2.75.71" style="fill:none;stroke:#263238;stroke-linecap:round;stroke-linejoin:round"></path><path d="M215.79,233.3s18.3-7.91,31.86-9.76c18.94-2.58,23.2,3.34,24.06,8.33s-4.2,8.93-12.07,13.13-34.12,18.9-43,10" style="fill:#fff"></path><g style="clip-path:url(#freepik--clip-path-6--inject-242)"><path d="M215.79,233.3s18.3-7.91,31.86-9.76c18.94-2.58,23.2,3.34,24.06,8.33s-4.2,8.93-12.07,13.13-34.12,18.9-43,10" style="fill:#263238;opacity:0.2"></path></g><path d="M215.79,233.3s18.3-7.91,31.86-9.76c18.94-2.58,23.2,3.34,24.06,8.33s-4.2,8.93-12.07,13.13-34.12,18.9-43,10" style="fill:none;stroke:#263238;stroke-linecap:round;stroke-linejoin:round"></path><path d="M216.59,255c6,6,19.67,1.37,30.46-3.58a15,15,0,0,1-6.58-11.78c-.36-6.56,3.1-12.43,5.67-15.84-13.37,2.19-32.36,10.1-32.36,10.1" style="fill:#263238;stroke:#263238;stroke-linecap:round;stroke-linejoin:round"></path><path d="M261.06,232.3s-12.45-1.53-23.47,4.77-33.31,20.39-38,22.49-10.86,2.63-18.37,8.74c-5,4.06-5.05,8.83,2.81,7.18,5.93-1.25,12.25-8.36,20.13-10.46s18.22-7.71,53.93-16.4c16.65-4.06,14.42-13.55,13.37-16.7" style="fill:#fff"></path><g style="clip-path:url(#freepik--clip-path-7--inject-242)"><path d="M259.11,231.29a43.4,43.4,0,0,0-21.52,5.78c-11,6.3-33.31,20.39-38,22.49s-10.86,2.63-18.37,8.74c-5,4.06-5.05,8.83,2.81,7.18,5.93-1.25,12.25-8.36,20.13-10.46s18.22-7.71,53.93-16.4c16.65-4.06,14.42-13.55,13.37-16.7" style="fill:#263238;opacity:0.2"></path><path d="M258.06,248.62c4.89-1.19,8.14-2.85,10.28-4.68-.92-3.42-4.14-8.88-15.43-7.18-14.89,2.25-33.4,14.35-47.4,19.53-2.71,1.59-4.83,2.77-5.95,3.27-4.73,2.1-10.86,2.63-18.37,8.74-5,4.06-5.05,8.83,2.81,7.18,5.93-1.25,12.25-8.36,20.13-10.46S222.35,257.31,258.06,248.62Z" style="fill:#263238;opacity:0.2"></path></g><path d="M261.06,232.3s-12.45-1.53-23.47,4.77-33.31,20.39-38,22.49-10.86,2.63-18.37,8.74c-5,4.06-5.05,8.83,2.81,7.18,5.93-1.25,12.25-8.36,20.13-10.46s18.22-7.71,53.93-16.4c16.65-4.06,14.42-13.55,13.37-16.7" style="fill:none;stroke:#263238;stroke-linecap:round;stroke-linejoin:round"></path><path d="M195.86,268.3a8.46,8.46,0,0,0,2.18-3.12c1.25-2.5-3.43-2.81-3.43-2.81l2.19-1.25-.28-.42c-4.22,1.4-9.33,2.73-15.33,7.6-5,4.06-5.05,8.83,2.81,7.18,4-.84,8.13-4.31,12.81-7.14Z" style="fill:#FC5200;stroke:#263238;stroke-linecap:round;stroke-linejoin:round"></path><path d="M334.12,184.88c-1.4-1.78-5.66-.76-5.66-.76s-4.48-.94-4.73.3-1.64,6.22-1.64,6.22-1.76.77-4.6,1.75c-.47.17-1,.34-1.51.51a73.89,73.89,0,0,1-18.63,3.77,114.81,114.81,0,0,0-21.89,3.22l0-.11c-.06-.16-.19-.55-.39-1.14l0-.08-.28-.78-.06-.17c-.09-.26-.19-.55-.3-.85,0-.11-.07-.21-.12-.33-.1-.3-.22-.62-.34-.94l-.14-.39-.38-1c-.06-.15-.11-.3-.17-.46l-.39-1c-.06-.14-.11-.28-.17-.43-.38-1-.8-2-1.22-3.11,0-.07,0-.14,0-.22,0-4.75-3.72-9.31-8.13-10.77-7.41-2.46-18.44,1.92-18.44,10.77,0,6.24,6,11.3,13.28,11.3h0c1.36,2.1,2.67,4,3.67,5.57l.12.19.5.77,0,0c.15.25.29.47.41.68l.09.15c.12.2.23.39.32.56.38.74.92,1.69,1.52,2.68l.47.76c.32.5.64,1,1,1.51l.49.73c.33.47.66.92,1,1.33.16.2.32.4.47.57a6.71,6.71,0,0,0,1.19,1.2.86.86,0,0,0,.56.22,107.08,107.08,0,0,0,16.5-3.93c2-.64,4.09-1.37,6.23-2.21q1.6-.63,3.42-1.44l2.47-1.14c1.26-.6,2.57-1.24,3.89-1.9l2.65-1.36c2.21-1.15,4.42-2.33,6.51-3.47,2.51-1.38,4.85-2.7,6.83-3.82l1-.55c3.09-1.77,5.08-3,5.08-3s4.44.54,6.94-1.82a15.53,15.53,0,0,0,3.14-3.66A4.07,4.07,0,0,0,334.12,184.88Z" style="fill:#fff"></path><g style="clip-path:url(#freepik--clip-path-8--inject-242)"><path d="M334.12,184.88c-1.4-1.78-5.66-.76-5.66-.76s-4.48-.94-4.73.3-1.64,6.22-1.64,6.22-1.76.77-4.6,1.75c-.47.17-1,.34-1.51.51a73.89,73.89,0,0,1-18.63,3.77,114.81,114.81,0,0,0-21.89,3.22l0-.11c-.06-.16-.19-.55-.39-1.14l0-.08-.28-.78-.06-.17c-.09-.26-.19-.55-.3-.85,0-.11-.07-.21-.12-.33-.1-.3-.22-.62-.34-.94l-.14-.39-.38-1c-.06-.15-.11-.3-.17-.46l-.39-1c-.06-.14-.11-.28-.17-.43-.38-1-.8-2-1.22-3.11,0-.07,0-.14,0-.22,0-4.75-3.72-9.31-8.13-10.77-7.41-2.46-18.44,1.92-18.44,10.77,0,6.24,6,11.3,13.28,11.3h0c1.36,2.1,2.67,4,3.67,5.57l.12.19.5.77,0,0c.15.25.29.47.41.68l.09.15c.12.2.23.39.32.56.38.74.92,1.69,1.52,2.68l.47.76c.32.5.64,1,1,1.51l.49.73c.33.47.66.92,1,1.33.16.2.32.4.47.57a6.71,6.71,0,0,0,1.19,1.2.86.86,0,0,0,.56.22,107.08,107.08,0,0,0,16.5-3.93c2-.64,4.09-1.37,6.23-2.21q1.6-.63,3.42-1.44l2.47-1.14c1.26-.6,2.57-1.24,3.89-1.9l2.65-1.36c2.21-1.15,4.42-2.33,6.51-3.47,2.51-1.38,4.85-2.7,6.83-3.82l1-.55c3.09-1.77,5.08-3,5.08-3s4.44.54,6.94-1.82a15.53,15.53,0,0,0,3.14-3.66A4.07,4.07,0,0,0,334.12,184.88Z" style="fill:#263238;opacity:0.2"></path><path d="M318.47,197.79l1-.55c3.09-1.77,5.08-3,5.08-3s4.44.54,6.94-1.82a15.53,15.53,0,0,0,3.14-3.66,3.79,3.79,0,0,0,.23-.8,82.54,82.54,0,0,1-10.8,5.3c-5.47,1.83-38.6,15.2-46.19,16.42s-7.6.91-9.12-2.74-3-9.72-7.29-11.85-4.87-13.07-9.43-11.25c-3.47,1.39-5.35,6.84-6.05,9.35,2,4,6.73,6.88,12.22,6.88h0c1.36,2.1,2.67,4,3.67,5.57l.12.19.5.77,0,0c.15.25.29.47.41.68l.09.15c.12.2.23.39.32.56.38.74.92,1.69,1.52,2.68l.47.76c.32.5.64,1,1,1.51l.49.73c.33.47.66.92,1,1.33.16.2.32.4.47.57a6.71,6.71,0,0,0,1.19,1.2.86.86,0,0,0,.56.22,107.08,107.08,0,0,0,16.5-3.93c2-.64,4.09-1.37,6.23-2.21q1.6-.63,3.42-1.44l2.47-1.14c1.26-.6,2.57-1.24,3.89-1.9l2.65-1.36c2.21-1.15,4.42-2.33,6.51-3.47C314.15,200.23,316.49,198.91,318.47,197.79Z" style="fill:#263238;opacity:0.2"></path></g><path d="M334.12,184.88c-1.4-1.78-5.66-.76-5.66-.76s-4.48-.94-4.73.3-1.64,6.22-1.64,6.22-1.76.77-4.6,1.75c-.47.17-1,.34-1.51.51a73.89,73.89,0,0,1-18.63,3.77,114.81,114.81,0,0,0-21.89,3.22l0-.11c-.06-.16-.19-.55-.39-1.14l0-.08-.28-.78-.06-.17c-.09-.26-.19-.55-.3-.85,0-.11-.07-.21-.12-.33-.1-.3-.22-.62-.34-.94l-.14-.39-.38-1c-.06-.15-.11-.3-.17-.46l-.39-1c-.06-.14-.11-.28-.17-.43-.38-1-.8-2-1.22-3.11,0-.07,0-.14,0-.22,0-4.75-3.72-9.31-8.13-10.77-7.41-2.46-18.44,1.92-18.44,10.77,0,6.24,6,11.3,13.28,11.3h0c1.36,2.1,2.67,4,3.67,5.57l.12.19.5.77,0,0c.15.25.29.47.41.68l.09.15c.12.2.23.39.32.56.38.74.92,1.69,1.52,2.68l.47.76c.32.5.64,1,1,1.51l.49.73c.33.47.66.92,1,1.33.16.2.32.4.47.57a6.71,6.71,0,0,0,1.19,1.2.86.86,0,0,0,.56.22,107.08,107.08,0,0,0,16.5-3.93c2-.64,4.09-1.37,6.23-2.21q1.6-.63,3.42-1.44l2.47-1.14c1.26-.6,2.57-1.24,3.89-1.9l2.65-1.36c2.21-1.15,4.42-2.33,6.51-3.47,2.51-1.38,4.85-2.7,6.83-3.82l1-.55c3.09-1.77,5.08-3,5.08-3s4.44.54,6.94-1.82a15.53,15.53,0,0,0,3.14-3.66A4.07,4.07,0,0,0,334.12,184.88Z" style="fill:none;stroke:#263238;stroke-linecap:round;stroke-linejoin:round"></path><line x1="258.16" y1="200.11" x2="252.85" y2="192.14" style="fill:none;stroke:#263238;stroke-linecap:round;stroke-linejoin:round"></line></g></svg>